<svg width="24" height="23" viewBox="0 0 24 23" fill="none" xmlns="http://www.w3.org/2000/svg">
<path d="M18.375 0H5.625C2.5184 0 0 2.41347 0 5.39062V17.6094C0 20.5865 2.5184 23 5.625 23H18.375C21.4816 23 24 20.5865 24 17.6094V5.39062C24 2.41347 21.4816 0 18.375 0Z" fill="url(#paint0_radial_810_771)"/>
<path d="M18.375 0H5.625C2.5184 0 0 2.41347 0 5.39062V17.6094C0 20.5865 2.5184 23 5.625 23H18.375C21.4816 23 24 20.5865 24 17.6094V5.39062C24 2.41347 21.4816 0 18.375 0Z" fill="url(#paint1_radial_810_771)"/>
<path d="M12.0008 2.51562C9.45478 2.51562 9.13519 2.52632 8.13525 2.56989C7.13719 2.61373 6.45591 2.76512 5.85984 2.9873C5.24316 3.21677 4.72013 3.52376 4.19906 4.02329C3.67753 4.52273 3.35719 5.02397 3.117 5.6147C2.8845 6.1861 2.72634 6.83927 2.68144 7.79529C2.63672 8.75366 2.625 9.06002 2.625 11.5001C2.625 13.9402 2.63625 14.2454 2.68163 15.2037C2.72756 16.1602 2.88553 16.8131 3.11719 17.3843C3.35681 17.9753 3.67716 18.4765 4.19841 18.9759C4.71938 19.4757 5.24241 19.7834 5.85863 20.0129C6.45516 20.2351 7.13653 20.3864 8.13441 20.4303C9.13444 20.4739 9.45375 20.4846 11.9997 20.4846C14.5461 20.4846 14.8646 20.4739 15.8646 20.4303C16.8626 20.3864 17.5447 20.2351 18.1412 20.0129C18.7576 19.7834 19.2799 19.4757 19.8007 18.9759C20.3223 18.4765 20.6425 17.9753 20.8828 17.3846C21.1132 16.8131 21.2715 16.16 21.3184 15.2039C21.3633 14.2456 21.375 13.9402 21.375 11.5001C21.375 9.06002 21.3633 8.75384 21.3184 7.79547C21.2715 6.839 21.1132 6.18619 20.8828 5.61496C20.6425 5.02397 20.3223 4.52273 19.8007 4.02329C19.2793 3.52358 18.7578 3.21659 18.1406 2.98739C17.543 2.76512 16.8613 2.61364 15.8632 2.56989C14.8632 2.52632 14.5448 2.51562 11.9979 2.51562H12.0008ZM11.1598 4.1347C11.4095 4.13434 11.688 4.1347 12.0008 4.1347C14.5041 4.1347 14.8007 4.14332 15.7892 4.18636C16.7032 4.22643 17.1994 4.37279 17.5298 4.49578C17.9674 4.65858 18.2793 4.85327 18.6072 5.16781C18.9353 5.48227 19.1384 5.78171 19.3088 6.20102C19.4371 6.51727 19.59 6.99272 19.6316 7.8687C19.6765 8.81583 19.6863 9.10027 19.6863 11.498C19.6863 13.8958 19.6765 14.1803 19.6316 15.1274C19.5898 16.0033 19.4371 16.4788 19.3088 16.7951C19.1389 17.2144 18.9353 17.513 18.6072 17.8272C18.2791 18.1417 17.9676 18.3363 17.5298 18.4992C17.1998 18.6227 16.7032 18.7687 15.7892 18.8088C14.8009 18.8518 14.5041 18.8612 12.0008 18.8612C9.49753 18.8612 9.20081 18.8518 8.21259 18.8088C7.29853 18.7684 6.80241 18.622 6.47166 18.499C6.03422 18.3361 5.72166 18.1415 5.39353 17.8271C5.06541 17.5126 4.86234 17.2139 4.692 16.7944C4.56366 16.4781 4.41075 16.0026 4.36913 15.1266C4.32422 14.1795 4.31522 13.8951 4.31522 11.4958C4.31522 9.09659 4.32422 8.81358 4.36913 7.86645C4.41094 6.99047 4.56366 6.51502 4.692 6.19832C4.86197 5.77902 5.06541 5.47957 5.39363 5.16512C5.72175 4.85066 6.03422 4.65597 6.47175 4.49282C6.80222 4.36928 7.29853 4.22328 8.21259 4.18303C9.07744 4.14557 9.41259 4.13434 11.1598 4.13245V4.1347ZM17.0052 5.62646C16.3841 5.62646 15.8802 6.10893 15.8802 6.70423C15.8802 7.29945 16.3841 7.78236 17.0052 7.78236C17.6263 7.78236 18.1302 7.29945 18.1302 6.70423C18.1302 6.10902 17.6263 5.62611 17.0052 5.62611V5.62646ZM12.0008 6.88616C9.34209 6.88616 7.18641 8.95203 7.18641 11.5001C7.18641 14.0481 9.34209 16.113 12.0008 16.113C14.6597 16.113 16.8146 14.0481 16.8146 11.5001C16.8146 8.95212 14.6595 6.88616 12.0007 6.88616H12.0008ZM12.0008 8.50524C13.7267 8.50524 15.1259 9.84598 15.1259 11.5001C15.1259 13.154 13.7267 14.4949 12.0008 14.4949C10.2749 14.4949 8.87588 13.154 8.87588 11.5001C8.87588 9.84598 10.2749 8.50524 12.0008 8.50524Z" fill="white"/>
<defs>
<radialGradient id="paint0_radial_810_771" cx="0" cy="0" r="1" gradientUnits="userSpaceOnUse" gradientTransform="translate(6.375 24.7714) rotate(-90) scale(22.7947 22.1227)">
<stop stop-color="#BA9494"/>
</radialGradient>
<radialGradient id="paint1_radial_810_771" cx="0" cy="0" r="1" gradientUnits="userSpaceOnUse" gradientTransform="translate(-4.02009 1.65681) rotate(78.2024) scale(10.2068 43.7522)">
<stop stop-color="#BA9494"/>
</radialGradient>
</defs>
</svg>
