<svg width="279" height="172" viewBox="0 0 279 172" fill="none" xmlns="http://www.w3.org/2000/svg">
<path d="M13.572 135.096L13.572 116.896L17.992 116.896L17.992 135.096L13.572 135.096ZM2.288 135.096L2.288 116.896L6.708 116.896L6.708 135.096L2.288 135.096ZM4.004 127.998L4.03 124.046L15.912 124.046L15.912 127.998L4.004 127.998ZM28.6077 135.356C27.1691 135.356 25.8864 135.044 24.7597 134.42C23.6504 133.796 22.7664 132.947 22.1077 131.872C21.4664 130.797 21.1457 129.567 21.1457 128.18C21.1457 126.793 21.4664 125.563 22.1077 124.488C22.7664 123.413 23.6504 122.564 24.7597 121.94C25.8864 121.316 27.1691 121.004 28.6077 121.004C30.0464 121.004 31.3204 121.316 32.4297 121.94C33.5564 122.564 34.4404 123.413 35.0817 124.488C35.7231 125.563 36.0437 126.793 36.0437 128.18C36.0437 129.567 35.7231 130.797 35.0817 131.872C34.4404 132.947 33.5564 133.796 32.4297 134.42C31.3204 135.044 30.0464 135.356 28.6077 135.356ZM28.6077 131.768C29.2317 131.768 29.7864 131.612 30.2717 131.3C30.7571 130.988 31.1384 130.563 31.4157 130.026C31.6931 129.489 31.8231 128.873 31.8057 128.18C31.8231 127.487 31.6931 126.871 31.4157 126.334C31.1384 125.779 30.7571 125.346 30.2717 125.034C29.7864 124.722 29.2317 124.566 28.6077 124.566C27.9837 124.566 27.4204 124.722 26.9177 125.034C26.4324 125.346 26.0511 125.779 25.7737 126.334C25.4964 126.871 25.3664 127.487 25.3837 128.18C25.3664 128.873 25.4964 129.489 25.7737 130.026C26.0511 130.563 26.4324 130.988 26.9177 131.3C27.4204 131.612 27.9837 131.768 28.6077 131.768ZM39.908 135.096L39.908 117.806L44.068 117.806L44.068 135.096L39.908 135.096ZM37.464 124.93L37.464 121.29L46.746 121.29L46.746 124.93L37.464 124.93ZM55.5744 135.356C54.0491 135.356 52.7231 135.053 51.5964 134.446C50.4697 133.822 49.5944 132.981 48.9704 131.924C48.3464 130.849 48.0344 129.627 48.0344 128.258C48.0344 127.201 48.2077 126.23 48.5544 125.346C48.9011 124.462 49.3864 123.699 50.0104 123.058C50.6344 122.399 51.3711 121.897 52.2204 121.55C53.0871 121.186 54.0317 121.004 55.0544 121.004C56.0251 121.004 56.9091 121.177 57.7064 121.524C58.5211 121.871 59.2231 122.356 59.8124 122.98C60.4017 123.604 60.8524 124.341 61.1644 125.19C61.4764 126.039 61.6151 126.967 61.5804 127.972L61.5544 129.09L50.5564 129.09L49.9584 126.75L58.1744 126.75L57.7324 127.244L57.7324 126.724C57.6977 126.291 57.5591 125.909 57.3164 125.58C57.0911 125.233 56.7877 124.965 56.4064 124.774C56.0251 124.583 55.5917 124.488 55.1064 124.488C54.4304 124.488 53.8497 124.627 53.3644 124.904C52.8964 125.164 52.5411 125.554 52.2984 126.074C52.0557 126.577 51.9344 127.201 51.9344 127.946C51.9344 128.709 52.0904 129.376 52.4024 129.948C52.7317 130.503 53.1997 130.936 53.8064 131.248C54.4304 131.56 55.1671 131.716 56.0164 131.716C56.6057 131.716 57.1257 131.629 57.5764 131.456C58.0444 131.283 58.5471 130.988 59.0844 130.572L61.0344 133.328C60.4971 133.796 59.9251 134.177 59.3184 134.472C58.7117 134.767 58.0877 134.983 57.4464 135.122C56.8224 135.278 56.1984 135.356 55.5744 135.356ZM64.2568 135.096L64.2568 115.856L68.4168 115.856L68.4168 135.096L64.2568 135.096ZM85.5514 135.33C84.39 135.33 83.35 135.027 82.4314 134.42C81.53 133.796 80.8107 132.947 80.2734 131.872C79.736 130.78 79.4674 129.549 79.4674 128.18C79.4674 126.776 79.736 125.537 80.2734 124.462C80.8107 123.387 81.5474 122.547 82.4834 121.94C83.4194 121.316 84.4854 121.004 85.6814 121.004C86.34 121.004 86.938 121.099 87.4754 121.29C88.03 121.481 88.5154 121.749 88.9314 122.096C89.3474 122.425 89.7027 122.815 89.9974 123.266C90.292 123.699 90.5087 124.167 90.6474 124.67L89.7894 124.566L89.7894 121.29L93.9234 121.29L93.9234 135.096L89.7114 135.096L89.7114 131.768L90.6474 131.742C90.5087 132.227 90.2834 132.687 89.9714 133.12C89.6594 133.553 89.278 133.935 88.8274 134.264C88.3767 134.593 87.874 134.853 87.3194 135.044C86.7647 135.235 86.1754 135.33 85.5514 135.33ZM86.6954 131.82C87.3367 131.82 87.8914 131.673 88.3594 131.378C88.8274 131.083 89.1914 130.667 89.4514 130.13C89.7114 129.575 89.8414 128.925 89.8414 128.18C89.8414 127.435 89.7114 126.793 89.4514 126.256C89.1914 125.701 88.8274 125.277 88.3594 124.982C87.8914 124.67 87.3367 124.514 86.6954 124.514C86.0714 124.514 85.5254 124.67 85.0574 124.982C84.6067 125.277 84.2514 125.701 83.9914 126.256C83.7314 126.793 83.6014 127.435 83.6014 128.18C83.6014 128.925 83.7314 129.575 83.9914 130.13C84.2514 130.667 84.6067 131.083 85.0574 131.378C85.5254 131.673 86.0714 131.82 86.6954 131.82ZM97.594 135.096L97.594 121.29L101.546 121.29L101.676 124.098L100.844 124.41C101.035 123.786 101.373 123.223 101.858 122.72C102.361 122.2 102.959 121.784 103.652 121.472C104.345 121.16 105.073 121.004 105.836 121.004C106.876 121.004 107.751 121.221 108.462 121.654C109.173 122.07 109.71 122.703 110.074 123.552C110.438 124.384 110.62 125.407 110.62 126.62L110.62 135.096L106.434 135.096L106.434 126.958C106.434 126.403 106.356 125.944 106.2 125.58C106.044 125.216 105.801 124.947 105.472 124.774C105.16 124.583 104.77 124.497 104.302 124.514C103.938 124.514 103.6 124.575 103.288 124.696C102.976 124.8 102.707 124.965 102.482 125.19C102.257 125.398 102.075 125.641 101.936 125.918C101.815 126.195 101.754 126.499 101.754 126.828L101.754 135.096L99.7 135.096C99.2147 135.096 98.7987 135.096 98.452 135.096C98.1054 135.096 97.8194 135.096 97.594 135.096ZM119.324 135.382C118.128 135.382 117.062 135.079 116.126 134.472C115.207 133.848 114.479 132.999 113.942 131.924C113.405 130.832 113.136 129.593 113.136 128.206C113.136 126.819 113.405 125.589 113.942 124.514C114.479 123.422 115.216 122.564 116.152 121.94C117.088 121.316 118.163 121.004 119.376 121.004C120 121.004 120.598 121.099 121.17 121.29C121.742 121.481 122.262 121.741 122.73 122.07C123.198 122.399 123.579 122.781 123.874 123.214C124.169 123.63 124.342 124.063 124.394 124.514L123.406 124.748L123.406 115.856L127.592 115.856L127.592 135.096L123.718 135.096L123.484 131.95L124.316 132.08C124.264 132.513 124.091 132.929 123.796 133.328C123.519 133.727 123.155 134.082 122.704 134.394C122.253 134.689 121.733 134.923 121.144 135.096C120.572 135.287 119.965 135.382 119.324 135.382ZM120.39 131.924C121.031 131.924 121.586 131.768 122.054 131.456C122.522 131.144 122.877 130.711 123.12 130.156C123.38 129.601 123.51 128.951 123.51 128.206C123.51 127.443 123.38 126.785 123.12 126.23C122.877 125.675 122.522 125.242 122.054 124.93C121.586 124.618 121.031 124.462 120.39 124.462C119.749 124.462 119.194 124.618 118.726 124.93C118.275 125.242 117.92 125.675 117.66 126.23C117.4 126.785 117.27 127.443 117.27 128.206C117.27 128.951 117.4 129.601 117.66 130.156C117.92 130.711 118.275 131.144 118.726 131.456C119.194 131.768 119.749 131.924 120.39 131.924ZM144.092 135.356C142.74 135.356 141.544 135.139 140.504 134.706C139.481 134.273 138.666 133.692 138.06 132.964L140.582 130.78C141.119 131.317 141.726 131.716 142.402 131.976C143.078 132.219 143.719 132.34 144.326 132.34C144.568 132.34 144.785 132.314 144.976 132.262C145.166 132.21 145.322 132.141 145.444 132.054C145.582 131.95 145.686 131.837 145.756 131.716C145.825 131.577 145.86 131.421 145.86 131.248C145.86 130.901 145.704 130.633 145.392 130.442C145.236 130.355 144.976 130.251 144.612 130.13C144.248 130.009 143.78 129.87 143.208 129.714C142.393 129.506 141.682 129.263 141.076 128.986C140.486 128.691 140.001 128.353 139.62 127.972C139.273 127.608 139.004 127.209 138.814 126.776C138.623 126.325 138.528 125.823 138.528 125.268C138.528 124.627 138.675 124.046 138.97 123.526C139.282 123.006 139.689 122.555 140.192 122.174C140.712 121.793 141.301 121.507 141.96 121.316C142.636 121.108 143.329 121.004 144.04 121.004C144.802 121.004 145.53 121.091 146.224 121.264C146.917 121.437 147.558 121.68 148.148 121.992C148.754 122.304 149.292 122.677 149.76 123.11L147.576 125.554C147.264 125.259 146.908 124.999 146.51 124.774C146.128 124.531 145.73 124.341 145.314 124.202C144.898 124.063 144.516 123.994 144.17 123.994C143.91 123.994 143.676 124.02 143.468 124.072C143.277 124.107 143.112 124.176 142.974 124.28C142.835 124.367 142.731 124.479 142.662 124.618C142.592 124.739 142.558 124.887 142.558 125.06C142.558 125.233 142.601 125.398 142.688 125.554C142.792 125.71 142.93 125.84 143.104 125.944C143.277 126.048 143.554 126.169 143.936 126.308C144.317 126.429 144.837 126.585 145.496 126.776C146.31 127.001 147.012 127.253 147.602 127.53C148.191 127.807 148.659 128.137 149.006 128.518C149.283 128.813 149.491 129.159 149.63 129.558C149.768 129.939 149.838 130.355 149.838 130.806C149.838 131.69 149.586 132.479 149.084 133.172C148.598 133.848 147.922 134.385 147.056 134.784C146.189 135.165 145.201 135.356 144.092 135.356ZM152.311 140.816L152.311 121.29L156.263 121.29L156.419 124.384L155.639 124.15C155.76 123.578 156.055 123.058 156.523 122.59C156.991 122.122 157.58 121.749 158.291 121.472C159.019 121.177 159.782 121.03 160.579 121.03C161.758 121.03 162.806 121.342 163.725 121.966C164.644 122.573 165.363 123.413 165.883 124.488C166.42 125.545 166.689 126.776 166.689 128.18C166.689 129.567 166.42 130.797 165.883 131.872C165.363 132.947 164.635 133.796 163.699 134.42C162.78 135.027 161.723 135.33 160.527 135.33C159.747 135.33 159.002 135.183 158.291 134.888C157.58 134.593 156.982 134.195 156.497 133.692C156.012 133.189 155.691 132.643 155.535 132.054L156.497 131.69L156.497 140.816L152.311 140.816ZM159.513 131.82C160.137 131.82 160.683 131.673 161.151 131.378C161.619 131.066 161.983 130.641 162.243 130.104C162.503 129.567 162.633 128.925 162.633 128.18C162.633 127.452 162.503 126.819 162.243 126.282C161.983 125.727 161.619 125.303 161.151 125.008C160.7 124.696 160.154 124.54 159.513 124.54C158.872 124.54 158.317 124.687 157.849 124.982C157.381 125.277 157.017 125.701 156.757 126.256C156.497 126.811 156.367 127.452 156.367 128.18C156.367 128.925 156.497 129.567 156.757 130.104C157.017 130.641 157.381 131.066 157.849 131.378C158.317 131.673 158.872 131.82 159.513 131.82ZM174.546 135.33C173.384 135.33 172.344 135.027 171.426 134.42C170.524 133.796 169.805 132.947 169.268 131.872C168.73 130.78 168.462 129.549 168.462 128.18C168.462 126.776 168.73 125.537 169.268 124.462C169.805 123.387 170.542 122.547 171.478 121.94C172.414 121.316 173.48 121.004 174.676 121.004C175.334 121.004 175.932 121.099 176.47 121.29C177.024 121.481 177.51 121.749 177.926 122.096C178.342 122.425 178.697 122.815 178.992 123.266C179.286 123.699 179.503 124.167 179.642 124.67L178.784 124.566L178.784 121.29L182.918 121.29L182.918 135.096L178.706 135.096L178.706 131.768L179.642 131.742C179.503 132.227 179.278 132.687 178.966 133.12C178.654 133.553 178.272 133.935 177.822 134.264C177.371 134.593 176.868 134.853 176.314 135.044C175.759 135.235 175.17 135.33 174.546 135.33ZM175.69 131.82C176.331 131.82 176.886 131.673 177.354 131.378C177.822 131.083 178.186 130.667 178.446 130.13C178.706 129.575 178.836 128.925 178.836 128.18C178.836 127.435 178.706 126.793 178.446 126.256C178.186 125.701 177.822 125.277 177.354 124.982C176.886 124.67 176.331 124.514 175.69 124.514C175.066 124.514 174.52 124.67 174.052 124.982C173.601 125.277 173.246 125.701 172.986 126.256C172.726 126.793 172.596 127.435 172.596 128.18C172.596 128.925 172.726 129.575 172.986 130.13C173.246 130.667 173.601 131.083 174.052 131.378C174.52 131.673 175.066 131.82 175.69 131.82ZM195.358 135.096L195.358 116.896L203.548 116.896C204.71 116.896 205.758 117.147 206.694 117.65C207.648 118.153 208.393 118.846 208.93 119.73C209.468 120.597 209.736 121.585 209.736 122.694C209.736 123.838 209.468 124.869 208.93 125.788C208.393 126.689 207.656 127.4 206.72 127.92C205.784 128.44 204.727 128.7 203.548 128.7L199.57 128.7L199.57 135.096L195.358 135.096ZM205.446 135.096L200.818 126.88L205.342 126.23L210.49 135.096L205.446 135.096ZM199.57 125.32L203.158 125.32C203.609 125.32 203.999 125.225 204.328 125.034C204.675 124.826 204.935 124.54 205.108 124.176C205.299 123.812 205.394 123.396 205.394 122.928C205.394 122.46 205.29 122.053 205.082 121.706C204.874 121.342 204.571 121.065 204.172 120.874C203.791 120.683 203.323 120.588 202.768 120.588L199.57 120.588L199.57 125.32ZM219.242 135.356C217.717 135.356 216.391 135.053 215.264 134.446C214.138 133.822 213.262 132.981 212.638 131.924C212.014 130.849 211.702 129.627 211.702 128.258C211.702 127.201 211.876 126.23 212.222 125.346C212.569 124.462 213.054 123.699 213.678 123.058C214.302 122.399 215.039 121.897 215.888 121.55C216.755 121.186 217.7 121.004 218.722 121.004C219.693 121.004 220.577 121.177 221.374 121.524C222.189 121.871 222.891 122.356 223.48 122.98C224.07 123.604 224.52 124.341 224.832 125.19C225.144 126.039 225.283 126.967 225.248 127.972L225.222 129.09L214.224 129.09L213.626 126.75L221.842 126.75L221.4 127.244L221.4 126.724C221.366 126.291 221.227 125.909 220.984 125.58C220.759 125.233 220.456 124.965 220.074 124.774C219.693 124.583 219.26 124.488 218.774 124.488C218.098 124.488 217.518 124.627 217.032 124.904C216.564 125.164 216.209 125.554 215.966 126.074C215.724 126.577 215.602 127.201 215.602 127.946C215.602 128.709 215.758 129.376 216.07 129.948C216.4 130.503 216.868 130.936 217.474 131.248C218.098 131.56 218.835 131.716 219.684 131.716C220.274 131.716 220.794 131.629 221.244 131.456C221.712 131.283 222.215 130.988 222.752 130.572L224.702 133.328C224.165 133.796 223.593 134.177 222.986 134.472C222.38 134.767 221.756 134.983 221.114 135.122C220.49 135.278 219.866 135.356 219.242 135.356ZM232.553 135.356C231.201 135.356 230.005 135.139 228.965 134.706C227.942 134.273 227.127 133.692 226.521 132.964L229.043 130.78C229.58 131.317 230.187 131.716 230.863 131.976C231.539 132.219 232.18 132.34 232.787 132.34C233.029 132.34 233.246 132.314 233.437 132.262C233.627 132.21 233.783 132.141 233.905 132.054C234.043 131.95 234.147 131.837 234.217 131.716C234.286 131.577 234.321 131.421 234.321 131.248C234.321 130.901 234.165 130.633 233.853 130.442C233.697 130.355 233.437 130.251 233.073 130.13C232.709 130.009 232.241 129.87 231.669 129.714C230.854 129.506 230.143 129.263 229.537 128.986C228.947 128.691 228.462 128.353 228.081 127.972C227.734 127.608 227.465 127.209 227.275 126.776C227.084 126.325 226.989 125.823 226.989 125.268C226.989 124.627 227.136 124.046 227.431 123.526C227.743 123.006 228.15 122.555 228.653 122.174C229.173 121.793 229.762 121.507 230.421 121.316C231.097 121.108 231.79 121.004 232.501 121.004C233.263 121.004 233.991 121.091 234.685 121.264C235.378 121.437 236.019 121.68 236.609 121.992C237.215 122.304 237.753 122.677 238.221 123.11L236.037 125.554C235.725 125.259 235.369 124.999 234.971 124.774C234.589 124.531 234.191 124.341 233.775 124.202C233.359 124.063 232.977 123.994 232.631 123.994C232.371 123.994 232.137 124.02 231.929 124.072C231.738 124.107 231.573 124.176 231.435 124.28C231.296 124.367 231.192 124.479 231.123 124.618C231.053 124.739 231.019 124.887 231.019 125.06C231.019 125.233 231.062 125.398 231.149 125.554C231.253 125.71 231.391 125.84 231.565 125.944C231.738 126.048 232.015 126.169 232.397 126.308C232.778 126.429 233.298 126.585 233.957 126.776C234.771 127.001 235.473 127.253 236.063 127.53C236.652 127.807 237.12 128.137 237.467 128.518C237.744 128.813 237.952 129.159 238.091 129.558C238.229 129.939 238.299 130.355 238.299 130.806C238.299 131.69 238.047 132.479 237.545 133.172C237.059 133.848 236.383 134.385 235.517 134.784C234.65 135.165 233.662 135.356 232.553 135.356ZM247.272 135.356C245.833 135.356 244.55 135.044 243.424 134.42C242.314 133.796 241.43 132.947 240.772 131.872C240.13 130.797 239.81 129.567 239.81 128.18C239.81 126.793 240.13 125.563 240.772 124.488C241.43 123.413 242.314 122.564 243.424 121.94C244.55 121.316 245.833 121.004 247.272 121.004C248.71 121.004 249.984 121.316 251.094 121.94C252.22 122.564 253.104 123.413 253.746 124.488C254.387 125.563 254.708 126.793 254.708 128.18C254.708 129.567 254.387 130.797 253.746 131.872C253.104 132.947 252.22 133.796 251.094 134.42C249.984 135.044 248.71 135.356 247.272 135.356ZM247.272 131.768C247.896 131.768 248.45 131.612 248.936 131.3C249.421 130.988 249.802 130.563 250.08 130.026C250.357 129.489 250.487 128.873 250.47 128.18C250.487 127.487 250.357 126.871 250.08 126.334C249.802 125.779 249.421 125.346 248.936 125.034C248.45 124.722 247.896 124.566 247.272 124.566C246.648 124.566 246.084 124.722 245.582 125.034C245.096 125.346 244.715 125.779 244.438 126.334C244.16 126.871 244.03 127.487 244.048 128.18C244.03 128.873 244.16 129.489 244.438 130.026C244.715 130.563 245.096 130.988 245.582 131.3C246.084 131.612 246.648 131.768 247.272 131.768ZM257.428 135.096L257.428 121.29L261.38 121.29L261.562 125.788L260.782 124.93C260.99 124.185 261.328 123.517 261.796 122.928C262.281 122.339 262.845 121.871 263.486 121.524C264.127 121.177 264.812 121.004 265.54 121.004C265.852 121.004 266.138 121.03 266.398 121.082C266.675 121.134 266.927 121.195 267.152 121.264L266.008 125.866C265.817 125.745 265.557 125.649 265.228 125.58C264.916 125.493 264.587 125.45 264.24 125.45C263.859 125.45 263.503 125.519 263.174 125.658C262.845 125.779 262.567 125.961 262.342 126.204C262.117 126.447 261.935 126.733 261.796 127.062C261.675 127.391 261.614 127.764 261.614 128.18L261.614 135.096L257.428 135.096ZM270.912 135.096L270.912 117.806L275.072 117.806L275.072 135.096L270.912 135.096ZM268.468 124.93L268.468 121.29L277.75 121.29L277.75 124.93L268.468 124.93Z" fill="#D5D5D6"/>
<path d="M141.375 61.5343C141.455 61.3833 141.407 61.19 141.268 61.1028C141.128 61.0156 140.949 61.0674 140.869 61.2184C140.788 61.3695 140.836 61.5627 140.976 61.65C141.115 61.7372 141.294 61.6855 141.375 61.5343Z" fill="#D5D5D6"/>
<path d="M144.567 55.45C144.648 55.2989 144.6 55.1057 144.46 55.0184C144.321 54.9312 144.142 54.9829 144.061 55.1341C143.981 55.2851 144.028 55.4784 144.168 55.5656C144.308 55.6529 144.487 55.6011 144.567 55.45Z" fill="#D5D5D6"/>
<path d="M144.601 59.5095C144.681 59.3583 144.633 59.1651 144.494 59.0779C144.354 58.9907 144.175 59.0424 144.095 59.1936C144.014 59.3446 144.062 59.5378 144.202 59.6251C144.341 59.7123 144.52 59.6605 144.601 59.5095Z" fill="#D5D5D6"/>
<path d="M144.64 63.5728C144.721 63.4218 144.673 63.2285 144.533 63.1413C144.393 63.054 144.215 63.1058 144.134 63.2569C144.053 63.408 144.101 63.6012 144.241 63.6884C144.381 63.7757 144.559 63.7239 144.64 63.5728Z" fill="#D5D5D6"/>
<path d="M147.986 45.4678C148.153 45.1548 148.054 44.7545 147.764 44.5738C147.475 44.3931 147.104 44.5004 146.937 44.8134C146.77 45.1263 146.869 45.5266 147.159 45.7073C147.448 45.888 147.819 45.7807 147.986 45.4678Z" fill="#D5D5D6"/>
<path d="M148.025 49.531C148.192 49.218 148.093 48.8177 147.804 48.6371C147.514 48.4564 147.144 48.5636 146.977 48.8766C146.81 49.1895 146.909 49.5898 147.198 49.7705C147.488 49.9512 147.858 49.8439 148.025 49.531Z" fill="#D5D5D6"/>
<path d="M148.064 53.5943C148.231 53.2813 148.132 52.8811 147.843 52.7004C147.553 52.5197 147.183 52.6269 147.016 52.9399C146.849 53.2529 146.948 53.6532 147.238 53.8339C147.527 54.0145 147.897 53.9073 148.064 53.5943Z" fill="#D5D5D6"/>
<path d="M148.104 57.6576C148.271 57.3446 148.172 56.9443 147.882 56.7637C147.593 56.5829 147.223 56.6902 147.056 57.0032C146.888 57.3162 146.988 57.7164 147.277 57.8971C147.566 58.0778 147.937 57.9706 148.104 57.6576Z" fill="#D5D5D6"/>
<path d="M148.137 61.717C148.304 61.404 148.205 61.0038 147.916 60.8231C147.626 60.6424 147.256 60.7496 147.089 61.0626C146.922 61.3756 147.021 61.7758 147.31 61.9566C147.6 62.1372 147.97 62.03 148.137 61.717Z" fill="#D5D5D6"/>
<path d="M147.905 65.6112C147.986 65.4601 147.938 65.2669 147.798 65.1796C147.658 65.0924 147.48 65.1442 147.399 65.2953C147.318 65.4464 147.366 65.6396 147.506 65.7268C147.646 65.8141 147.824 65.7623 147.905 65.6112Z" fill="#D5D5D6"/>
<path d="M151.775 47.8332C152.109 47.2073 151.911 46.4068 151.332 46.0454C150.753 45.684 150.013 45.8985 149.679 46.5244C149.344 47.1504 149.543 47.9509 150.122 48.3123C150.701 48.6737 151.441 48.4592 151.775 47.8332Z" fill="#D5D5D6"/>
<path d="M151.815 51.8965C152.149 51.2705 151.95 50.47 151.372 50.1086C150.793 49.7472 150.052 49.9617 149.718 50.5877C149.384 51.2137 149.582 52.0141 150.161 52.3755C150.74 52.7369 151.48 52.5225 151.815 51.8965Z" fill="#D5D5D6"/>
<path d="M151.854 55.9599C152.188 55.3339 151.99 54.5335 151.411 54.172C150.832 53.8106 150.092 54.0251 149.757 54.6511C149.423 55.277 149.621 56.0775 150.2 56.4389C150.779 56.8004 151.52 56.5858 151.854 55.9599Z" fill="#D5D5D6"/>
<path d="M151.887 60.0195C152.221 59.3936 152.023 58.5931 151.444 58.2316C150.865 57.8702 150.125 58.0848 149.791 58.7107C149.456 59.3367 149.655 60.1371 150.234 60.4985C150.813 60.86 151.553 60.6455 151.887 60.0195Z" fill="#D5D5D6"/>
<path d="M151.402 63.7554C151.57 63.4424 151.47 63.0422 151.181 62.8615C150.891 62.6808 150.521 62.788 150.354 63.101C150.187 63.414 150.286 63.8142 150.576 63.9949C150.865 64.1756 151.235 64.0684 151.402 63.7554Z" fill="#D5D5D6"/>
<path d="M151.17 67.6496C151.251 67.4985 151.203 67.3053 151.064 67.218C150.924 67.1308 150.745 67.1826 150.664 67.3336C150.584 67.4848 150.632 67.678 150.771 67.7652C150.911 67.8524 151.09 67.8007 151.17 67.6496Z" fill="#D5D5D6"/>
<path d="M155.04 49.8716C155.375 49.2457 155.176 48.4452 154.597 48.0838C154.018 47.7224 153.278 47.9369 152.944 48.5628C152.61 49.1888 152.808 49.9893 153.387 50.3507C153.966 50.7121 154.706 50.4976 155.04 49.8716Z" fill="#D5D5D6"/>
<path d="M155.08 53.9348C155.414 53.3089 155.216 52.5084 154.637 52.147C154.058 51.7856 153.317 52.0001 152.983 52.626C152.649 53.252 152.847 54.0525 153.426 54.4139C154.005 54.7753 154.745 54.5608 155.08 53.9348Z" fill="#D5D5D6"/>
<path d="M155.113 57.9945C155.447 57.3685 155.249 56.5681 154.67 56.2067C154.091 55.8453 153.351 56.0597 153.016 56.6857C152.682 57.3116 152.881 58.1122 153.459 58.4736C154.038 58.835 154.779 58.6204 155.113 57.9945Z" fill="#D5D5D6"/>
<path d="M155.152 62.0579C155.486 61.4319 155.288 60.6314 154.709 60.27C154.13 59.9086 153.39 60.1231 153.056 60.7491C152.721 61.3751 152.92 62.1755 153.499 62.5369C154.078 62.8983 154.818 62.6839 155.152 62.0579Z" fill="#D5D5D6"/>
<path d="M154.668 65.7938C154.835 65.4808 154.736 65.0806 154.446 64.8999C154.157 64.7192 153.786 64.8264 153.619 65.1394C153.452 65.4524 153.551 65.8526 153.841 66.0333C154.13 66.214 154.5 66.1068 154.668 65.7938Z" fill="#D5D5D6"/>
<path d="M154.436 69.688C154.516 69.537 154.469 69.3437 154.329 69.2565C154.189 69.1692 154.01 69.2211 153.93 69.3721C153.849 69.5232 153.897 69.7164 154.037 69.8037C154.176 69.8909 154.355 69.8392 154.436 69.688Z" fill="#D5D5D6"/>
<path d="M157.781 51.583C157.949 51.27 157.849 50.8698 157.56 50.6891C157.27 50.5084 156.9 50.6156 156.733 50.9286C156.566 51.2415 156.665 51.6418 156.955 51.8225C157.244 52.0032 157.614 51.8959 157.781 51.583Z" fill="#D5D5D6"/>
<path d="M157.815 55.6425C157.982 55.3295 157.883 54.9292 157.593 54.7485C157.304 54.5678 156.934 54.6751 156.767 54.9881C156.599 55.301 156.699 55.7013 156.988 55.882C157.277 56.0627 157.648 55.9554 157.815 55.6425Z" fill="#D5D5D6"/>
<path d="M157.854 59.7058C158.021 59.3928 157.922 58.9926 157.633 58.8119C157.343 58.6312 156.973 58.7384 156.806 59.0514C156.639 59.3644 156.738 59.7646 157.027 59.9453C157.317 60.126 157.687 60.0188 157.854 59.7058Z" fill="#D5D5D6"/>
<path d="M157.894 63.769C158.061 63.456 157.961 63.0558 157.672 62.8751C157.383 62.6944 157.012 62.8016 156.845 63.1146C156.678 63.4276 156.777 63.8279 157.067 64.0086C157.356 64.1892 157.726 64.082 157.894 63.769Z" fill="#D5D5D6"/>
<path d="M157.662 67.6631C157.742 67.5119 157.695 67.3188 157.555 67.2315C157.415 67.1443 157.236 67.196 157.156 67.3471C157.075 67.4982 157.123 67.6915 157.263 67.7787C157.402 67.8659 157.581 67.8141 157.662 67.6631Z" fill="#D5D5D6"/>
<path d="M157.701 71.7264C157.782 71.5753 157.734 71.3821 157.594 71.2949C157.454 71.2076 157.276 71.2594 157.195 71.4105C157.114 71.5616 157.162 71.7548 157.302 71.842C157.442 71.9293 157.62 71.8775 157.701 71.7264Z" fill="#D5D5D6"/>
<path d="M160.769 53.4483C160.85 53.2973 160.802 53.104 160.663 53.0168C160.523 52.9296 160.344 52.9813 160.263 53.1324C160.183 53.2835 160.231 53.4767 160.37 53.564C160.51 53.6512 160.689 53.5994 160.769 53.4483Z" fill="#D5D5D6"/>
<path d="M160.809 57.5115C160.89 57.3604 160.842 57.1672 160.702 57.08C160.562 56.9928 160.384 57.0445 160.303 57.1956C160.222 57.3467 160.27 57.54 160.41 57.6272C160.55 57.7144 160.728 57.6626 160.809 57.5115Z" fill="#D5D5D6"/>
<path d="M160.848 61.5748C160.929 61.4236 160.881 61.2305 160.741 61.1432C160.602 61.056 160.423 61.1077 160.342 61.2589C160.261 61.41 160.309 61.6032 160.449 61.6904C160.589 61.7777 160.767 61.7259 160.848 61.5748Z" fill="#D5D5D6"/>
<path d="M160.887 65.6382C160.968 65.4871 160.92 65.2939 160.781 65.2067C160.641 65.1194 160.462 65.1712 160.381 65.3223C160.301 65.4733 160.349 65.6666 160.488 65.7538C160.628 65.8411 160.807 65.7893 160.887 65.6382Z" fill="#D5D5D6"/>
<path d="M160.927 69.7014C161.008 69.5503 160.96 69.3571 160.82 69.2699C160.68 69.1827 160.502 69.2344 160.421 69.3855C160.34 69.5366 160.388 69.7298 160.528 69.8171C160.668 69.9043 160.846 69.8525 160.927 69.7014Z" fill="#D5D5D6"/>
<path d="M164.035 55.4868C164.116 55.3357 164.068 55.1425 163.928 55.0553C163.788 54.968 163.609 55.0198 163.529 55.1709C163.448 55.322 163.496 55.5152 163.636 55.6024C163.776 55.6897 163.954 55.6379 164.035 55.4868Z" fill="#D5D5D6"/>
<path d="M164.074 59.55C164.155 59.3989 164.107 59.2057 163.967 59.1185C163.827 59.0312 163.649 59.083 163.568 59.2341C163.487 59.3852 163.535 59.5784 163.675 59.6657C163.815 59.7529 163.994 59.7011 164.074 59.55Z" fill="#D5D5D6"/>
<path d="M164.114 63.6133C164.194 63.4621 164.146 63.269 164.007 63.1817C163.867 63.0945 163.688 63.1462 163.608 63.2973C163.527 63.4485 163.575 63.6416 163.714 63.7289C163.854 63.8161 164.033 63.7644 164.114 63.6133Z" fill="#D5D5D6"/>
<path d="M164.153 67.6767C164.234 67.5256 164.186 67.3324 164.046 67.2451C163.906 67.1579 163.728 67.2096 163.647 67.3608C163.566 67.5118 163.614 67.7051 163.754 67.7923C163.894 67.8796 164.072 67.8277 164.153 67.6767Z" fill="#D5D5D6"/>
<path d="M167.3 57.5252C167.381 57.3741 167.333 57.1809 167.193 57.0936C167.053 57.0064 166.875 57.0582 166.794 57.2093C166.713 57.3604 166.761 57.5536 166.901 57.6408C167.041 57.7281 167.219 57.6763 167.3 57.5252Z" fill="#D5D5D6"/>
<path d="M167.339 61.5884C167.42 61.4373 167.372 61.2441 167.232 61.1569C167.093 61.0696 166.914 61.1214 166.833 61.2725C166.753 61.4235 166.801 61.6168 166.94 61.704C167.08 61.7913 167.259 61.7395 167.339 61.5884Z" fill="#D5D5D6"/>
<path d="M167.379 65.6516C167.46 65.5005 167.412 65.3073 167.272 65.2201C167.132 65.1329 166.953 65.1846 166.873 65.3357C166.792 65.4868 166.84 65.6801 166.98 65.7673C167.119 65.8545 167.298 65.8028 167.379 65.6516Z" fill="#D5D5D6"/>
<path d="M170.565 59.5635C170.646 59.4125 170.598 59.2192 170.458 59.132C170.319 59.0448 170.14 59.0966 170.059 59.2476C169.979 59.3988 170.026 59.592 170.166 59.6792C170.306 59.7664 170.485 59.7147 170.565 59.5635Z" fill="#D5D5D6"/>
<path d="M170.605 63.6268C170.685 63.4757 170.637 63.2825 170.498 63.1952C170.358 63.108 170.179 63.1597 170.099 63.3109C170.018 63.4619 170.066 63.6552 170.206 63.7424C170.345 63.8297 170.524 63.7778 170.605 63.6268Z" fill="#D5D5D6"/>
<path d="M173.831 61.602C173.911 61.451 173.863 61.2577 173.724 61.1705C173.584 61.0833 173.405 61.135 173.325 61.2861C173.244 61.4372 173.292 61.6304 173.431 61.7177C173.571 61.8049 173.75 61.7532 173.831 61.602Z" fill="#D5D5D6"/>
<path d="M157.527 31.283C157.608 31.1319 157.56 30.9387 157.421 30.8514C157.281 30.7642 157.102 30.816 157.021 30.9671C156.941 31.1182 156.989 31.3114 157.128 31.3987C157.268 31.4859 157.447 31.4341 157.527 31.283Z" fill="#D5D5D6"/>
<path d="M154.247 37.3212C154.328 37.1701 154.28 36.977 154.14 36.8897C154.001 36.8024 153.822 36.8542 153.741 37.0053C153.661 37.1564 153.708 37.3496 153.848 37.4369C153.988 37.5241 154.167 37.4723 154.247 37.3212Z" fill="#D5D5D6"/>
<path d="M157.519 35.3162C157.599 35.1651 157.552 34.9719 157.412 34.8847C157.272 34.7974 157.093 34.8492 157.013 35.0003C156.932 35.1514 156.98 35.3446 157.12 35.4319C157.259 35.5191 157.438 35.4673 157.519 35.3162Z" fill="#D5D5D6"/>
<path d="M160.793 33.3214C160.874 33.1704 160.826 32.9771 160.686 32.8899C160.546 32.8026 160.367 32.8545 160.287 33.0055C160.206 33.1567 160.254 33.3499 160.394 33.4371C160.533 33.5244 160.712 33.4726 160.793 33.3214Z" fill="#D5D5D6"/>
<path d="M147.961 45.5134C148.128 45.2004 148.029 44.8001 147.74 44.6194C147.45 44.4387 147.08 44.546 146.913 44.859C146.746 45.172 146.845 45.5722 147.135 45.7529C147.424 45.9336 147.794 45.8264 147.961 45.5134Z" fill="#D5D5D6"/>
<path d="M151.235 43.5184C151.403 43.2055 151.303 42.8052 151.014 42.6246C150.724 42.4439 150.354 42.5511 150.187 42.864C150.02 43.177 150.119 43.5773 150.409 43.758C150.698 43.9387 151.068 43.8314 151.235 43.5184Z" fill="#D5D5D6"/>
<path d="M154.51 41.5236C154.677 41.2106 154.578 40.8103 154.288 40.6296C153.999 40.4489 153.629 40.5562 153.461 40.8692C153.294 41.1822 153.393 41.5824 153.683 41.7631C153.972 41.9438 154.343 41.8366 154.51 41.5236Z" fill="#D5D5D6"/>
<path d="M157.784 39.5288C157.951 39.2158 157.852 38.8156 157.562 38.6349C157.273 38.4542 156.903 38.5614 156.735 38.8744C156.568 39.1874 156.668 39.5877 156.957 39.7684C157.246 39.949 157.617 39.8418 157.784 39.5288Z" fill="#D5D5D6"/>
<path d="M161.055 37.5238C161.222 37.2108 161.123 36.8106 160.834 36.6299C160.544 36.4492 160.174 36.5564 160.007 36.8694C159.84 37.1824 159.939 37.5827 160.228 37.7634C160.518 37.944 160.888 37.8368 161.055 37.5238Z" fill="#D5D5D6"/>
<path d="M164.058 35.3598C164.139 35.2088 164.091 35.0155 163.951 34.9283C163.811 34.841 163.633 34.8928 163.552 35.0439C163.471 35.195 163.519 35.3883 163.659 35.4755C163.799 35.5628 163.977 35.5109 164.058 35.3598Z" fill="#D5D5D6"/>
<path d="M151.751 47.8789C152.085 47.2529 151.887 46.4525 151.308 46.0911C150.729 45.7296 149.989 45.9441 149.654 46.5701C149.32 47.1961 149.518 47.9965 150.097 48.3579C150.676 48.7194 151.417 48.5049 151.751 47.8789Z" fill="#D5D5D6"/>
<path d="M155.025 45.884C155.359 45.258 155.161 44.4575 154.582 44.0961C154.003 43.7347 153.263 43.9492 152.928 44.5752C152.594 45.2012 152.793 46.0016 153.371 46.363C153.95 46.7244 154.691 46.51 155.025 45.884Z" fill="#D5D5D6"/>
<path d="M158.299 43.8892C158.633 43.2632 158.435 42.4628 157.856 42.1014C157.277 41.74 156.537 41.9544 156.202 42.5804C155.868 43.2064 156.067 44.0069 156.645 44.3683C157.224 44.7297 157.965 44.5152 158.299 43.8892Z" fill="#D5D5D6"/>
<path d="M161.567 41.8908C161.901 41.2648 161.703 40.4644 161.124 40.103C160.545 39.7415 159.805 39.956 159.471 40.582C159.136 41.208 159.335 42.0084 159.914 42.3698C160.493 42.7312 161.233 42.5168 161.567 41.8908Z" fill="#D5D5D6"/>
<path d="M164.32 39.5622C164.487 39.2492 164.388 38.849 164.099 38.6683C163.809 38.4876 163.439 38.5948 163.272 38.9078C163.105 39.2208 163.204 39.621 163.494 39.8017C163.783 39.9824 164.153 39.8752 164.32 39.5622Z" fill="#D5D5D6"/>
<path d="M167.323 37.3982C167.404 37.2471 167.356 37.0539 167.216 36.9666C167.077 36.8794 166.898 36.9312 166.817 37.0823C166.737 37.2334 166.784 37.4267 166.924 37.5139C167.064 37.6011 167.243 37.5493 167.323 37.3982Z" fill="#D5D5D6"/>
<path d="M155.016 49.9173C155.35 49.2913 155.152 48.4908 154.573 48.1294C153.994 47.768 153.254 47.9825 152.919 48.6085C152.585 49.2345 152.784 50.0349 153.362 50.3963C153.941 50.7577 154.682 50.5433 155.016 49.9173Z" fill="#D5D5D6"/>
<path d="M158.29 47.9223C158.624 47.2963 158.426 46.4959 157.847 46.1345C157.268 45.7731 156.528 45.9875 156.194 46.6135C155.859 47.2395 156.058 48.04 156.637 48.4014C157.216 48.7628 157.956 48.5483 158.29 47.9223Z" fill="#D5D5D6"/>
<path d="M161.558 45.9238C161.892 45.2978 161.694 44.4974 161.115 44.136C160.536 43.7746 159.796 43.989 159.462 44.615C159.127 45.2411 159.326 46.0415 159.905 46.4029C160.484 46.7643 161.224 46.5498 161.558 45.9238Z" fill="#D5D5D6"/>
<path d="M164.832 43.9292C165.167 43.3032 164.968 42.5028 164.389 42.1413C163.81 41.78 163.07 41.9944 162.736 42.6204C162.402 43.2463 162.6 44.0468 163.179 44.4082C163.758 44.7696 164.498 44.5551 164.832 43.9292Z" fill="#D5D5D6"/>
<path d="M167.586 41.6006C167.753 41.2876 167.653 40.8874 167.364 40.7067C167.075 40.5259 166.704 40.6332 166.537 40.9462C166.37 41.2592 166.469 41.6594 166.759 41.8401C167.048 42.0208 167.418 41.9136 167.586 41.6006Z" fill="#D5D5D6"/>
<path d="M170.589 39.4367C170.669 39.2856 170.622 39.0924 170.482 39.0051C170.342 38.9179 170.163 38.9697 170.083 39.1208C170.002 39.2719 170.05 39.4651 170.19 39.5524C170.329 39.6396 170.508 39.5878 170.589 39.4367Z" fill="#D5D5D6"/>
<path d="M157.757 51.6286C157.924 51.3156 157.825 50.9154 157.536 50.7347C157.246 50.554 156.876 50.6612 156.709 50.9742C156.542 51.2872 156.641 51.6874 156.93 51.8681C157.22 52.0488 157.59 51.9416 157.757 51.6286Z" fill="#D5D5D6"/>
<path d="M161.025 49.6299C161.192 49.317 161.093 48.9167 160.804 48.736C160.514 48.5553 160.144 48.6626 159.977 48.9755C159.81 49.2885 159.909 49.6888 160.199 49.8695C160.488 50.0502 160.858 49.9429 161.025 49.6299Z" fill="#D5D5D6"/>
<path d="M164.299 47.635C164.467 47.322 164.367 46.9218 164.078 46.7411C163.788 46.5604 163.418 46.6676 163.251 46.9806C163.084 47.2936 163.183 47.6938 163.473 47.8746C163.762 48.0552 164.132 47.948 164.299 47.635Z" fill="#D5D5D6"/>
<path d="M167.573 45.6403C167.741 45.3273 167.641 44.927 167.352 44.7464C167.062 44.5657 166.692 44.6729 166.525 44.9859C166.358 45.2989 166.457 45.6991 166.747 45.8798C167.036 46.0605 167.406 45.9533 167.573 45.6403Z" fill="#D5D5D6"/>
<path d="M170.58 43.4698C170.661 43.3187 170.613 43.1255 170.473 43.0383C170.333 42.9511 170.155 43.0028 170.074 43.1539C169.993 43.305 170.041 43.4983 170.181 43.5855C170.321 43.6727 170.499 43.6209 170.58 43.4698Z" fill="#D5D5D6"/>
<path d="M173.854 41.475C173.935 41.324 173.887 41.1307 173.747 41.0435C173.607 40.9563 173.429 41.0081 173.348 41.1591C173.267 41.3103 173.315 41.5035 173.455 41.5907C173.595 41.678 173.773 41.6262 173.854 41.475Z" fill="#D5D5D6"/>
<path d="M160.745 53.4938C160.826 53.3427 160.778 53.1495 160.638 53.0622C160.499 52.975 160.32 53.0268 160.239 53.1779C160.158 53.329 160.206 53.5222 160.346 53.6094C160.486 53.6967 160.664 53.6449 160.745 53.4938Z" fill="#D5D5D6"/>
<path d="M164.019 51.4991C164.1 51.3479 164.052 51.1548 163.912 51.0675C163.773 50.9803 163.594 51.032 163.513 51.1831C163.433 51.3343 163.48 51.5275 163.62 51.6147C163.76 51.7019 163.939 51.6502 164.019 51.4991Z" fill="#D5D5D6"/>
<path d="M167.293 49.5043C167.374 49.3532 167.326 49.16 167.186 49.0728C167.047 48.9856 166.868 49.0373 166.787 49.1884C166.707 49.3395 166.754 49.5327 166.894 49.6199C167.034 49.7072 167.213 49.6554 167.293 49.5043Z" fill="#D5D5D6"/>
<path d="M170.567 47.5095C170.648 47.3583 170.6 47.1652 170.46 47.0779C170.321 46.9907 170.142 47.0424 170.061 47.1935C169.981 47.3446 170.029 47.5379 170.168 47.6251C170.308 47.7123 170.487 47.6605 170.567 47.5095Z" fill="#D5D5D6"/>
<path d="M173.845 45.5082C173.926 45.3571 173.878 45.1639 173.738 45.0767C173.598 44.9895 173.42 45.0412 173.339 45.1922C173.258 45.3434 173.306 45.5366 173.446 45.6238C173.586 45.7111 173.764 45.6593 173.845 45.5082Z" fill="#D5D5D6"/>
<path d="M164.011 55.5323C164.091 55.3812 164.043 55.188 163.904 55.1007C163.764 55.0135 163.585 55.0653 163.505 55.2163C163.424 55.3675 163.472 55.5606 163.611 55.6479C163.751 55.7351 163.93 55.6834 164.011 55.5323Z" fill="#D5D5D6"/>
<path d="M167.285 53.5375C167.365 53.3864 167.317 53.1932 167.178 53.106C167.038 53.0187 166.859 53.0705 166.779 53.2216C166.698 53.3727 166.746 53.5659 166.885 53.6532C167.025 53.7404 167.204 53.6887 167.285 53.5375Z" fill="#D5D5D6"/>
<path d="M170.559 51.5428C170.639 51.3917 170.592 51.1985 170.452 51.1113C170.312 51.024 170.133 51.0758 170.053 51.2269C169.972 51.378 170.02 51.5712 170.16 51.6584C170.299 51.7457 170.478 51.6939 170.559 51.5428Z" fill="#D5D5D6"/>
<path d="M173.833 49.5479C173.914 49.3968 173.866 49.2036 173.726 49.1164C173.586 49.0291 173.407 49.0809 173.327 49.232C173.246 49.3831 173.294 49.5763 173.434 49.6636C173.573 49.7508 173.752 49.699 173.833 49.5479Z" fill="#D5D5D6"/>
<path d="M167.276 57.5706C167.356 57.4196 167.309 57.2263 167.169 57.1391C167.029 57.0519 166.85 57.1037 166.77 57.2547C166.689 57.4058 166.737 57.5991 166.877 57.6863C167.016 57.7735 167.195 57.7218 167.276 57.5706Z" fill="#D5D5D6"/>
<path d="M170.55 55.5759C170.631 55.4248 170.583 55.2316 170.443 55.1443C170.303 55.0571 170.124 55.1089 170.044 55.26C169.963 55.4111 170.011 55.6043 170.151 55.6915C170.291 55.7788 170.469 55.727 170.55 55.5759Z" fill="#D5D5D6"/>
<path d="M173.824 53.5812C173.905 53.43 173.857 53.2369 173.717 53.1496C173.577 53.0624 173.399 53.1141 173.318 53.2653C173.237 53.4164 173.285 53.6096 173.425 53.6968C173.565 53.7841 173.743 53.7323 173.824 53.5812Z" fill="#D5D5D6"/>
<path d="M170.541 59.609C170.622 59.4579 170.574 59.2647 170.434 59.1775C170.294 59.0902 170.116 59.142 170.035 59.2931C169.954 59.4442 170.002 59.6374 170.142 59.7246C170.282 59.8119 170.46 59.7601 170.541 59.609Z" fill="#D5D5D6"/>
<path d="M173.815 57.6143C173.896 57.4631 173.848 57.27 173.708 57.1827C173.568 57.0955 173.39 57.1472 173.309 57.2984C173.228 57.4495 173.276 57.6427 173.416 57.7299C173.556 57.8172 173.734 57.7654 173.815 57.6143Z" fill="#D5D5D6"/>
<path d="M173.806 61.6475C173.887 61.4964 173.839 61.3032 173.699 61.2159C173.56 61.1287 173.381 61.1805 173.3 61.3316C173.22 61.4827 173.267 61.6759 173.407 61.7631C173.547 61.8504 173.726 61.7986 173.806 61.6475Z" fill="#D5D5D6"/>
<path d="M140.372 41.1924C140.453 41.0413 140.405 40.8481 140.265 40.7608C140.125 40.6736 139.947 40.7254 139.866 40.8765C139.785 41.0276 139.833 41.2208 139.973 41.308C140.113 41.3953 140.291 41.3435 140.372 41.1924Z" fill="#D5D5D6"/>
<path d="M140.412 45.2558C140.492 45.1047 140.444 44.9115 140.305 44.8243C140.165 44.7371 139.986 44.7888 139.905 44.9398C139.825 45.091 139.873 45.2842 140.012 45.3715C140.152 45.4587 140.331 45.4069 140.412 45.2558Z" fill="#D5D5D6"/>
<path d="M140.451 49.3192C140.531 49.168 140.484 48.9749 140.344 48.8876C140.204 48.8004 140.025 48.8521 139.945 49.0033C139.864 49.1543 139.912 49.3476 140.052 49.4348C140.191 49.5221 140.37 49.4702 140.451 49.3192Z" fill="#D5D5D6"/>
<path d="M140.49 53.3824C140.571 53.2313 140.523 53.0381 140.383 52.9509C140.244 52.8636 140.065 52.9154 139.984 53.0665C139.903 53.2176 139.951 53.4108 140.091 53.498C140.231 53.5853 140.41 53.5335 140.49 53.3824Z" fill="#D5D5D6"/>
<path d="M140.53 57.4456C140.61 57.2946 140.562 57.1013 140.423 57.0141C140.283 56.9269 140.104 56.9786 140.024 57.1297C139.943 57.2808 139.991 57.474 140.131 57.5613C140.27 57.6485 140.449 57.5967 140.53 57.4456Z" fill="#D5D5D6"/>
<path d="M143.638 43.2309C143.718 43.0798 143.67 42.8866 143.531 42.7993C143.391 42.7121 143.212 42.7639 143.132 42.915C143.051 43.0661 143.099 43.2593 143.238 43.3465C143.378 43.4337 143.557 43.382 143.638 43.2309Z" fill="#D5D5D6"/>
<path d="M143.677 47.2942C143.758 47.1432 143.71 46.95 143.57 46.8628C143.43 46.7755 143.251 46.8273 143.171 46.9783C143.09 47.1295 143.138 47.3227 143.278 47.4099C143.417 47.4972 143.596 47.4454 143.677 47.2942Z" fill="#D5D5D6"/>
<path d="M143.716 51.3577C143.797 51.2065 143.749 51.0133 143.609 50.9261C143.469 50.8389 143.291 50.8906 143.21 51.0417C143.129 51.1928 143.177 51.386 143.317 51.4733C143.457 51.5605 143.636 51.5087 143.716 51.3577Z" fill="#D5D5D6"/>
<path d="M140.348 41.2381C140.429 41.0869 140.381 40.8938 140.241 40.8065C140.101 40.7193 139.922 40.771 139.842 40.9221C139.761 41.0732 139.809 41.2665 139.949 41.3537C140.088 41.4409 140.267 41.3891 140.348 41.2381Z" fill="#D5D5D6"/>
<path d="M143.622 39.2433C143.702 39.0922 143.655 38.899 143.515 38.8118C143.375 38.7246 143.196 38.7763 143.116 38.9274C143.035 39.0785 143.083 39.2717 143.223 39.359C143.362 39.4462 143.541 39.3944 143.622 39.2433Z" fill="#D5D5D6"/>
<path d="M146.896 37.2484C146.977 37.0973 146.929 36.9041 146.789 36.8168C146.649 36.7296 146.471 36.7814 146.39 36.9325C146.309 37.0836 146.357 37.2768 146.497 37.364C146.637 37.4513 146.815 37.3995 146.896 37.2484Z" fill="#D5D5D6"/>
<path d="M150.17 35.2537C150.251 35.1025 150.203 34.9094 150.063 34.8221C149.923 34.7349 149.745 34.7866 149.664 34.9378C149.583 35.0889 149.631 35.2821 149.771 35.3693C149.911 35.4566 150.089 35.4048 150.17 35.2537Z" fill="#D5D5D6"/>
<path d="M153.448 33.2524C153.528 33.1013 153.48 32.9081 153.341 32.8209C153.201 32.7337 153.022 32.7854 152.942 32.9365C152.861 33.0876 152.909 33.2809 153.048 33.3681C153.188 33.4553 153.367 33.4036 153.448 33.2524Z" fill="#D5D5D6"/>
<path d="M143.613 43.2765C143.694 43.1254 143.646 42.9322 143.506 42.845C143.366 42.7577 143.188 42.8095 143.107 42.9606C143.026 43.1117 143.074 43.3049 143.214 43.3922C143.354 43.4794 143.533 43.4276 143.613 43.2765Z" fill="#D5D5D6"/>
<path d="M146.887 41.2818C146.968 41.1307 146.92 40.9375 146.78 40.8503C146.641 40.763 146.462 40.8148 146.381 40.9659C146.301 41.117 146.348 41.3102 146.488 41.3975C146.628 41.4847 146.807 41.4329 146.887 41.2818Z" fill="#D5D5D6"/>
<path d="M150.161 39.2869C150.242 39.1358 150.194 38.9425 150.054 38.8553C149.915 38.7681 149.736 38.8199 149.655 38.971C149.575 39.1221 149.623 39.3153 149.762 39.4025C149.902 39.4897 150.081 39.438 150.161 39.2869Z" fill="#D5D5D6"/>
<path d="M107.679 61.4571C107.76 61.306 107.712 61.1128 107.572 61.0255C107.432 60.9383 107.254 60.9901 107.173 61.1411C107.092 61.2923 107.14 61.4855 107.28 61.5727C107.42 61.6599 107.598 61.6082 107.679 61.4571Z" fill="#D5D5D6"/>
<path d="M110.872 55.3727C110.952 55.2216 110.905 55.0284 110.765 54.9411C110.625 54.8539 110.446 54.9056 110.366 55.0568C110.285 55.2078 110.333 55.4011 110.473 55.4883C110.612 55.5756 110.791 55.5237 110.872 55.3727Z" fill="#D5D5D6"/>
<path d="M110.905 59.4322C110.986 59.2811 110.938 59.0878 110.798 59.0006C110.658 58.9134 110.48 58.9651 110.399 59.1163C110.318 59.2673 110.366 59.4606 110.506 59.5478C110.646 59.635 110.824 59.5832 110.905 59.4322Z" fill="#D5D5D6"/>
<path d="M110.944 63.4955C111.025 63.3445 110.977 63.1512 110.837 63.064C110.698 62.9767 110.519 63.0286 110.438 63.1796C110.358 63.3308 110.405 63.5239 110.545 63.6112C110.685 63.6984 110.864 63.6467 110.944 63.4955Z" fill="#D5D5D6"/>
<path d="M114.29 45.3904C114.457 45.0774 114.358 44.6772 114.068 44.4965C113.779 44.3158 113.409 44.423 113.242 44.736C113.075 45.049 113.174 45.4492 113.463 45.6299C113.753 45.8106 114.123 45.7034 114.29 45.3904Z" fill="#D5D5D6"/>
<path d="M114.329 49.4537C114.497 49.1407 114.397 48.7404 114.108 48.5597C113.818 48.379 113.448 48.4863 113.281 48.7993C113.114 49.1122 113.213 49.5125 113.503 49.6932C113.792 49.8739 114.162 49.7666 114.329 49.4537Z" fill="#D5D5D6"/>
<path d="M114.369 53.517C114.536 53.204 114.437 52.8038 114.147 52.6231C113.858 52.4424 113.488 52.5496 113.32 52.8626C113.153 53.1756 113.252 53.5758 113.542 53.7566C113.831 53.9372 114.202 53.83 114.369 53.517Z" fill="#D5D5D6"/>
<path d="M114.408 57.5803C114.575 57.2673 114.476 56.867 114.187 56.6864C113.897 56.5057 113.527 56.6129 113.36 56.9259C113.193 57.2389 113.292 57.6391 113.581 57.8198C113.871 58.0005 114.241 57.8933 114.408 57.5803Z" fill="#D5D5D6"/>
<path d="M114.442 61.6398C114.609 61.3268 114.509 60.9265 114.22 60.7458C113.931 60.5651 113.56 60.6724 113.393 60.9854C113.226 61.2984 113.325 61.6986 113.615 61.8793C113.904 62.06 114.274 61.9528 114.442 61.6398Z" fill="#D5D5D6"/>
<path d="M114.21 65.5339C114.29 65.3828 114.242 65.1896 114.103 65.1024C113.963 65.0151 113.784 65.0669 113.704 65.218C113.623 65.3691 113.671 65.5623 113.81 65.6495C113.95 65.7368 114.129 65.685 114.21 65.5339Z" fill="#D5D5D6"/>
<path d="M118.079 47.7559C118.414 47.13 118.215 46.3295 117.636 45.9681C117.057 45.6066 116.317 45.8212 115.983 46.4471C115.649 47.0731 115.847 47.8735 116.426 48.235C117.005 48.5964 117.745 48.3819 118.079 47.7559Z" fill="#D5D5D6"/>
<path d="M118.119 51.8191C118.453 51.1932 118.255 50.3927 117.676 50.0313C117.097 49.6699 116.356 49.8844 116.022 50.5103C115.688 51.1363 115.886 51.9368 116.465 52.2982C117.044 52.6596 117.785 52.4451 118.119 51.8191Z" fill="#D5D5D6"/>
<path d="M118.158 55.8826C118.492 55.2566 118.294 54.4561 117.715 54.0947C117.136 53.7333 116.396 53.9478 116.062 54.5738C115.727 55.1997 115.926 56.0002 116.505 56.3616C117.084 56.723 117.824 56.5085 118.158 55.8826Z" fill="#D5D5D6"/>
<path d="M118.191 59.9422C118.526 59.3163 118.327 58.5158 117.748 58.1544C117.169 57.7929 116.429 58.0075 116.095 58.6334C115.761 59.2594 115.959 60.0598 116.538 60.4212C117.117 60.7827 117.857 60.5682 118.191 59.9422Z" fill="#D5D5D6"/>
<path d="M117.707 63.6781C117.874 63.3651 117.775 62.9649 117.485 62.7842C117.196 62.6035 116.825 62.7107 116.658 63.0237C116.491 63.3367 116.59 63.7369 116.88 63.9177C117.169 64.0984 117.539 63.9911 117.707 63.6781Z" fill="#D5D5D6"/>
<path d="M117.475 67.5723C117.555 67.4212 117.508 67.228 117.368 67.1407C117.228 67.0535 117.049 67.1053 116.969 67.2564C116.888 67.4075 116.936 67.6007 117.076 67.6879C117.215 67.7752 117.394 67.7234 117.475 67.5723Z" fill="#D5D5D6"/>
<path d="M121.345 49.7943C121.679 49.1683 121.481 48.3678 120.902 48.0064C120.323 47.645 119.582 47.8595 119.248 48.4855C118.914 49.1115 119.112 49.9119 119.691 50.2733C120.27 50.6347 121.01 50.4203 121.345 49.7943Z" fill="#D5D5D6"/>
<path d="M121.384 53.8575C121.718 53.2316 121.52 52.4311 120.941 52.0697C120.362 51.7083 119.622 51.9228 119.288 52.5487C118.953 53.1747 119.152 53.9752 119.731 54.3365C120.31 54.698 121.05 54.4835 121.384 53.8575Z" fill="#D5D5D6"/>
<path d="M121.417 57.9172C121.751 57.2912 121.553 56.4907 120.974 56.1293C120.395 55.7679 119.655 55.9824 119.321 56.6084C118.987 57.2343 119.185 58.0348 119.764 58.3962C120.343 58.7576 121.083 58.5431 121.417 57.9172Z" fill="#D5D5D6"/>
<path d="M121.457 61.9806C121.791 61.3546 121.593 60.5541 121.014 60.1927C120.435 59.8313 119.694 60.0458 119.36 60.6718C119.026 61.2978 119.224 62.0982 119.803 62.4596C120.382 62.821 121.122 62.6066 121.457 61.9806Z" fill="#D5D5D6"/>
<path d="M120.972 65.7165C121.139 65.4035 121.04 65.0033 120.75 64.8226C120.461 64.6419 120.091 64.7491 119.924 65.0621C119.756 65.3751 119.856 65.7753 120.145 65.956C120.435 66.1367 120.805 66.0295 120.972 65.7165Z" fill="#D5D5D6"/>
<path d="M120.74 69.6108C120.821 69.4597 120.773 69.2665 120.633 69.1792C120.493 69.092 120.315 69.1438 120.234 69.2948C120.153 69.446 120.201 69.6391 120.341 69.7264C120.481 69.8136 120.659 69.7619 120.74 69.6108Z" fill="#D5D5D6"/>
<path d="M124.086 51.5056C124.253 51.1926 124.154 50.7924 123.864 50.6117C123.575 50.431 123.205 50.5382 123.038 50.8512C122.87 51.1642 122.97 51.5645 123.259 51.7452C123.549 51.9259 123.919 51.8186 124.086 51.5056Z" fill="#D5D5D6"/>
<path d="M124.119 55.5651C124.286 55.2521 124.187 54.8519 123.898 54.6712C123.608 54.4905 123.238 54.5977 123.071 54.9107C122.904 55.2237 123.003 55.6239 123.292 55.8046C123.582 55.9853 123.952 55.8781 124.119 55.5651Z" fill="#D5D5D6"/>
<path d="M124.158 59.6285C124.326 59.3155 124.226 58.9152 123.937 58.7346C123.647 58.5539 123.277 58.6611 123.11 58.9741C122.943 59.2871 123.042 59.6873 123.332 59.868C123.621 60.0487 123.991 59.9415 124.158 59.6285Z" fill="#D5D5D6"/>
<path d="M124.198 63.6917C124.365 63.3787 124.266 62.9785 123.976 62.7978C123.687 62.6171 123.317 62.7243 123.15 63.0373C122.982 63.3503 123.082 63.7506 123.371 63.9313C123.66 64.1119 124.031 64.0047 124.198 63.6917Z" fill="#D5D5D6"/>
<path d="M123.966 67.5858C124.047 67.4347 123.999 67.2415 123.859 67.1542C123.719 67.067 123.541 67.1187 123.46 67.2699C123.379 67.4209 123.427 67.6142 123.567 67.7014C123.707 67.7887 123.885 67.7368 123.966 67.5858Z" fill="#D5D5D6"/>
<path d="M124.005 71.6491C124.086 71.4981 124.038 71.3048 123.898 71.2176C123.759 71.1304 123.58 71.1822 123.499 71.3332C123.419 71.4843 123.466 71.6775 123.606 71.7648C123.746 71.852 123.925 71.8003 124.005 71.6491Z" fill="#D5D5D6"/>
<path d="M127.074 53.371C127.154 53.2199 127.107 53.0267 126.967 52.9394C126.827 52.8522 126.648 52.904 126.568 53.0551C126.487 53.2062 126.535 53.3994 126.675 53.4866C126.814 53.5739 126.993 53.5221 127.074 53.371Z" fill="#D5D5D6"/>
<path d="M127.113 57.4342C127.194 57.2831 127.146 57.0899 127.006 57.0027C126.866 56.9154 126.688 56.9672 126.607 57.1183C126.526 57.2694 126.574 57.4626 126.714 57.5498C126.854 57.6371 127.032 57.5853 127.113 57.4342Z" fill="#D5D5D6"/>
<path d="M127.153 61.4974C127.233 61.3463 127.185 61.1532 127.046 61.0659C126.906 60.9787 126.727 61.0304 126.647 61.1815C126.566 61.3327 126.614 61.5259 126.753 61.6131C126.893 61.7003 127.072 61.6486 127.153 61.4974Z" fill="#D5D5D6"/>
<path d="M127.192 65.5609C127.272 65.4097 127.225 65.2166 127.085 65.1293C126.945 65.0421 126.766 65.0938 126.686 65.245C126.605 65.396 126.653 65.5893 126.793 65.6765C126.932 65.7638 127.111 65.7119 127.192 65.5609Z" fill="#D5D5D6"/>
<path d="M127.231 69.6241C127.312 69.473 127.264 69.2798 127.124 69.1926C126.985 69.1054 126.806 69.1571 126.725 69.3082C126.644 69.4593 126.692 69.6526 126.832 69.7398C126.972 69.827 127.151 69.7752 127.231 69.6241Z" fill="#D5D5D6"/>
<path d="M130.339 55.4095C130.42 55.2584 130.372 55.0652 130.232 54.9779C130.092 54.8907 129.914 54.9425 129.833 55.0936C129.752 55.2447 129.8 55.4379 129.94 55.5251C130.08 55.6124 130.258 55.5606 130.339 55.4095Z" fill="#D5D5D6"/>
<path d="M130.379 59.4727C130.459 59.3216 130.411 59.1284 130.272 59.0411C130.132 58.9539 129.953 59.0057 129.872 59.1568C129.792 59.3078 129.84 59.5011 129.979 59.5883C130.119 59.6756 130.298 59.6238 130.379 59.4727Z" fill="#D5D5D6"/>
<path d="M130.418 63.5359C130.499 63.3848 130.451 63.1916 130.311 63.1044C130.171 63.0171 129.993 63.0689 129.912 63.22C129.831 63.3711 129.879 63.5643 130.019 63.6516C130.159 63.7388 130.337 63.6871 130.418 63.5359Z" fill="#D5D5D6"/>
<path d="M130.457 67.5994C130.538 67.4482 130.49 67.2551 130.35 67.1678C130.211 67.0806 130.032 67.1323 129.951 67.2835C129.871 67.4345 129.918 67.6278 130.058 67.715C130.198 67.8023 130.377 67.7504 130.457 67.5994Z" fill="#D5D5D6"/>
<path d="M133.604 57.4478C133.685 57.2968 133.637 57.1035 133.497 57.0163C133.358 56.9291 133.179 56.9809 133.098 57.1319C133.018 57.2831 133.066 57.4763 133.205 57.5635C133.345 57.6507 133.524 57.599 133.604 57.4478Z" fill="#D5D5D6"/>
<path d="M133.644 61.5111C133.724 61.3599 133.677 61.1668 133.537 61.0795C133.397 60.9923 133.218 61.044 133.138 61.1952C133.057 61.3462 133.105 61.5395 133.245 61.6267C133.384 61.714 133.563 61.6621 133.644 61.5111Z" fill="#D5D5D6"/>
<path d="M133.683 65.5743C133.764 65.4232 133.716 65.23 133.576 65.1428C133.436 65.0556 133.258 65.1073 133.177 65.2584C133.096 65.4095 133.144 65.6027 133.284 65.69C133.424 65.7772 133.602 65.7254 133.683 65.5743Z" fill="#D5D5D6"/>
<path d="M136.87 59.4862C136.95 59.3352 136.902 59.1419 136.763 59.0547C136.623 58.9675 136.444 59.0192 136.363 59.1703C136.283 59.3214 136.331 59.5146 136.47 59.6018C136.61 59.6891 136.789 59.6373 136.87 59.4862Z" fill="#D5D5D6"/>
<path d="M136.909 63.5495C136.99 63.3983 136.942 63.2052 136.802 63.1179C136.662 63.0307 136.484 63.0824 136.403 63.2335C136.322 63.3846 136.37 63.5779 136.51 63.6651C136.65 63.7523 136.828 63.7005 136.909 63.5495Z" fill="#D5D5D6"/>
<path d="M140.135 61.5247C140.216 61.3736 140.168 61.1804 140.028 61.0932C139.888 61.0059 139.71 61.0577 139.629 61.2088C139.548 61.3599 139.596 61.5531 139.736 61.6403C139.876 61.7276 140.054 61.6758 140.135 61.5247Z" fill="#D5D5D6"/>
<path d="M123.832 31.2056C123.913 31.0546 123.865 30.8613 123.725 30.7741C123.585 30.6869 123.406 30.7387 123.326 30.8897C123.245 31.0409 123.293 31.2341 123.433 31.3213C123.572 31.4086 123.751 31.3568 123.832 31.2056Z" fill="#D5D5D6"/>
<path d="M120.552 37.2439C120.632 37.0928 120.584 36.8996 120.445 36.8124C120.305 36.7251 120.126 36.7769 120.046 36.928C119.965 37.0791 120.013 37.2723 120.153 37.3596C120.292 37.4468 120.471 37.395 120.552 37.2439Z" fill="#D5D5D6"/>
<path d="M123.823 35.2389C123.904 35.0878 123.856 34.8946 123.716 34.8074C123.576 34.7201 123.398 34.7719 123.317 34.9229C123.236 35.0741 123.284 35.2673 123.424 35.3545C123.564 35.4418 123.742 35.39 123.823 35.2389Z" fill="#D5D5D6"/>
<path d="M127.097 33.2441C127.178 33.0931 127.13 32.8998 126.99 32.8126C126.851 32.7253 126.672 32.7771 126.591 32.9282C126.51 33.0793 126.558 33.2726 126.698 33.3598C126.838 33.447 127.017 33.3953 127.097 33.2441Z" fill="#D5D5D6"/>
<path d="M114.266 45.436C114.433 45.123 114.334 44.7228 114.044 44.5421C113.755 44.3614 113.385 44.4686 113.217 44.7816C113.05 45.0946 113.149 45.4948 113.439 45.6756C113.728 45.8562 114.099 45.749 114.266 45.436Z" fill="#D5D5D6"/>
<path d="M117.54 43.4411C117.707 43.1282 117.608 42.7279 117.318 42.5472C117.029 42.3665 116.659 42.4738 116.492 42.7867C116.324 43.0997 116.424 43.5 116.713 43.6807C117.002 43.8614 117.373 43.7541 117.54 43.4411Z" fill="#D5D5D6"/>
<path d="M120.814 41.4462C120.981 41.1332 120.882 40.733 120.592 40.5523C120.303 40.3716 119.933 40.4789 119.766 40.7919C119.599 41.1049 119.698 41.5051 119.987 41.6858C120.277 41.8664 120.647 41.7592 120.814 41.4462Z" fill="#D5D5D6"/>
<path d="M124.088 39.4515C124.255 39.1385 124.156 38.7383 123.867 38.5576C123.577 38.3769 123.207 38.4841 123.04 38.7971C122.873 39.1101 122.972 39.5103 123.261 39.691C123.551 39.8717 123.921 39.7645 124.088 39.4515Z" fill="#D5D5D6"/>
<path d="M127.36 37.4465C127.527 37.1335 127.427 36.7333 127.138 36.5526C126.849 36.3719 126.478 36.4791 126.311 36.7921C126.144 37.1051 126.243 37.5053 126.533 37.686C126.822 37.8667 127.192 37.7595 127.36 37.4465Z" fill="#D5D5D6"/>
<path d="M130.362 35.2825C130.443 35.1314 130.395 34.9382 130.255 34.851C130.116 34.7637 129.937 34.8155 129.856 34.9666C129.776 35.1177 129.824 35.3109 129.963 35.3982C130.103 35.4854 130.282 35.4336 130.362 35.2825Z" fill="#D5D5D6"/>
<path d="M118.055 47.8016C118.389 47.1756 118.191 46.3751 117.612 46.0137C117.033 45.6523 116.293 45.8668 115.959 46.4928C115.624 47.1188 115.823 47.9192 116.402 48.2806C116.981 48.642 117.721 48.4276 118.055 47.8016Z" fill="#D5D5D6"/>
<path d="M121.329 45.8066C121.663 45.1806 121.465 44.3802 120.886 44.0188C120.307 43.6574 119.567 43.8718 119.233 44.4979C118.898 45.1239 119.097 45.9243 119.676 46.2857C120.255 46.6471 120.995 46.4326 121.329 45.8066Z" fill="#D5D5D6"/>
<path d="M124.603 43.8119C124.938 43.1859 124.739 42.3855 124.16 42.0241C123.581 41.6626 122.841 41.8771 122.507 42.5031C122.173 43.1291 122.371 43.9295 122.95 44.291C123.529 44.6524 124.269 44.4379 124.603 43.8119Z" fill="#D5D5D6"/>
<path d="M127.871 41.8135C128.206 41.1875 128.007 40.3871 127.428 40.0257C126.849 39.6642 126.109 39.8787 125.775 40.5047C125.441 41.1307 125.639 41.9311 126.218 42.2925C126.797 42.6539 127.537 42.4394 127.871 41.8135Z" fill="#D5D5D6"/>
<path d="M130.625 39.4849C130.792 39.1719 130.693 38.7717 130.403 38.591C130.114 38.4102 129.744 38.5175 129.576 38.8305C129.409 39.1435 129.509 39.5437 129.798 39.7244C130.087 39.9051 130.458 39.7979 130.625 39.4849Z" fill="#D5D5D6"/>
<path d="M133.628 37.3209C133.708 37.1698 133.66 36.9766 133.521 36.8893C133.381 36.8021 133.202 36.8539 133.122 37.0049C133.041 37.1561 133.089 37.3493 133.228 37.4366C133.368 37.5238 133.547 37.472 133.628 37.3209Z" fill="#D5D5D6"/>
<path d="M121.32 49.8399C121.655 49.2139 121.456 48.4135 120.877 48.0521C120.298 47.6907 119.558 47.9051 119.224 48.5311C118.889 49.1571 119.088 49.9576 119.667 50.319C120.246 50.6804 120.986 50.4659 121.32 49.8399Z" fill="#D5D5D6"/>
<path d="M124.594 47.845C124.929 47.219 124.73 46.4186 124.151 46.0572C123.573 45.6958 122.832 45.9102 122.498 46.5362C122.164 47.1622 122.362 47.9627 122.941 48.3241C123.52 48.6855 124.26 48.471 124.594 47.845Z" fill="#D5D5D6"/>
<path d="M127.862 45.8465C128.197 45.2205 127.998 44.4201 127.419 44.0587C126.841 43.6973 126.1 43.9117 125.766 44.5377C125.432 45.1637 125.63 45.9642 126.209 46.3256C126.788 46.687 127.528 46.4725 127.862 45.8465Z" fill="#D5D5D6"/>
<path d="M131.137 43.8519C131.471 43.2259 131.272 42.4255 130.693 42.064C130.115 41.7026 129.374 41.9171 129.04 42.5431C128.706 43.169 128.904 43.9695 129.483 44.3309C130.062 44.6923 130.802 44.4778 131.137 43.8519Z" fill="#D5D5D6"/>
<path d="M133.89 41.5233C134.057 41.2103 133.958 40.81 133.668 40.6293C133.379 40.4486 133.009 40.5559 132.842 40.8689C132.675 41.1819 132.774 41.5821 133.063 41.7628C133.353 41.9435 133.723 41.8363 133.89 41.5233Z" fill="#D5D5D6"/>
<path d="M136.893 39.3593C136.974 39.2083 136.926 39.0151 136.786 38.9278C136.646 38.8405 136.468 38.8924 136.387 39.0434C136.306 39.1946 136.354 39.3878 136.494 39.475C136.634 39.5623 136.812 39.5105 136.893 39.3593Z" fill="#D5D5D6"/>
<path d="M124.061 51.5512C124.228 51.2382 124.129 50.838 123.84 50.6573C123.55 50.4766 123.18 50.5838 123.013 50.8968C122.846 51.2099 122.945 51.6101 123.235 51.7908C123.524 51.9715 123.894 51.8642 124.061 51.5512Z" fill="#D5D5D6"/>
<path d="M127.33 49.5526C127.497 49.2396 127.397 48.8394 127.108 48.6587C126.819 48.478 126.448 48.5852 126.281 48.8982C126.114 49.2112 126.213 49.6114 126.503 49.7922C126.792 49.9728 127.162 49.8656 127.33 49.5526Z" fill="#D5D5D6"/>
<path d="M130.604 47.5577C130.771 47.2447 130.672 46.8445 130.382 46.6638C130.093 46.4831 129.723 46.5903 129.555 46.9033C129.388 47.2163 129.487 47.6165 129.777 47.7972C130.066 47.9779 130.437 47.8707 130.604 47.5577Z" fill="#D5D5D6"/>
<path d="M133.878 45.563C134.045 45.25 133.946 44.8497 133.656 44.6691C133.367 44.4884 132.997 44.5956 132.829 44.9086C132.662 45.2216 132.762 45.6218 133.051 45.8025C133.34 45.9832 133.711 45.876 133.878 45.563Z" fill="#D5D5D6"/>
<path d="M135.437 45.8141C135.518 45.6631 135.47 45.4699 135.33 45.3827C135.191 45.2954 135.012 45.3472 134.931 45.4982C134.851 45.6493 134.898 45.8426 135.038 45.9298C135.178 46.0171 135.357 45.9653 135.437 45.8141Z" fill="#D5D5D6"/>
<path d="M140.158 41.3977C140.239 41.2467 140.191 41.0534 140.051 40.9662C139.912 40.879 139.733 40.9307 139.652 41.0818C139.571 41.2329 139.619 41.4262 139.759 41.5134C139.899 41.6007 140.078 41.5488 140.158 41.3977Z" fill="#D5D5D6"/>
<path d="M127.049 53.4164C127.13 53.2654 127.082 53.0721 126.943 52.9849C126.803 52.8977 126.624 52.9495 126.543 53.1005C126.463 53.2517 126.511 53.4449 126.65 53.5321C126.79 53.6193 126.969 53.5676 127.049 53.4164Z" fill="#D5D5D6"/>
<path d="M130.324 51.4217C130.404 51.2706 130.356 51.0774 130.217 50.9902C130.077 50.903 129.898 50.9547 129.817 51.1058C129.737 51.2569 129.785 51.4501 129.924 51.5373C130.064 51.6246 130.243 51.5728 130.324 51.4217Z" fill="#D5D5D6"/>
<path d="M133.598 49.427C133.678 49.2759 133.631 49.0827 133.491 48.9955C133.351 48.9082 133.172 48.96 133.092 49.1111C133.011 49.2622 133.059 49.4554 133.199 49.5426C133.338 49.6299 133.517 49.5781 133.598 49.427Z" fill="#D5D5D6"/>
<path d="M136.872 47.4321C136.952 47.281 136.905 47.0878 136.765 47.0006C136.625 46.9134 136.446 46.9651 136.366 47.1162C136.285 47.2673 136.333 47.4606 136.473 47.5478C136.612 47.635 136.791 47.5832 136.872 47.4321Z" fill="#D5D5D6"/>
<path d="M140.149 45.4308C140.23 45.2798 140.182 45.0866 140.042 44.9993C139.903 44.9121 139.724 44.9638 139.643 45.1149C139.563 45.266 139.61 45.4593 139.75 45.5465C139.89 45.6338 140.069 45.5819 140.149 45.4308Z" fill="#D5D5D6"/>
<path d="M130.315 55.4549C130.396 55.3039 130.348 55.1106 130.208 55.0234C130.068 54.9361 129.889 54.988 129.809 55.139C129.728 55.2901 129.776 55.4833 129.916 55.5706C130.056 55.6578 130.234 55.6061 130.315 55.4549Z" fill="#D5D5D6"/>
<path d="M133.589 53.4602C133.67 53.3091 133.622 53.1159 133.482 53.0286C133.342 52.9414 133.164 52.9931 133.083 53.1443C133.002 53.2954 133.05 53.4886 133.19 53.5758C133.33 53.6631 133.508 53.6113 133.589 53.4602Z" fill="#D5D5D6"/>
<path d="M136.863 51.4655C136.944 51.3144 136.896 51.1212 136.756 51.0339C136.616 50.9467 136.438 50.9984 136.357 51.1496C136.276 51.3007 136.324 51.4939 136.464 51.5811C136.604 51.6684 136.782 51.6166 136.863 51.4655Z" fill="#D5D5D6"/>
<path d="M140.137 49.4706C140.218 49.3195 140.17 49.1263 140.03 49.0391C139.89 48.9518 139.712 49.0036 139.631 49.1547C139.55 49.3058 139.598 49.499 139.738 49.5863C139.878 49.6735 140.056 49.6217 140.137 49.4706Z" fill="#D5D5D6"/>
<path d="M133.58 57.4933C133.661 57.3422 133.613 57.149 133.473 57.0617C133.333 56.9745 133.155 57.0263 133.074 57.1774C132.993 57.3285 133.041 57.5217 133.181 57.6089C133.321 57.6962 133.499 57.6444 133.58 57.4933Z" fill="#D5D5D6"/>
<path d="M136.854 55.4986C136.935 55.3474 136.887 55.1543 136.747 55.067C136.608 54.9798 136.429 55.0315 136.348 55.1827C136.267 55.3338 136.315 55.527 136.455 55.6142C136.595 55.7015 136.773 55.6497 136.854 55.4986Z" fill="#D5D5D6"/>
<path d="M140.128 53.5039C140.209 53.3527 140.161 53.1596 140.021 53.0723C139.882 52.9851 139.703 53.0368 139.622 53.1879C139.542 53.3391 139.589 53.5323 139.729 53.6195C139.869 53.7067 140.048 53.655 140.128 53.5039Z" fill="#D5D5D6"/>
<path d="M136.845 59.5317C136.926 59.3806 136.878 59.1874 136.738 59.1001C136.599 59.0129 136.42 59.0647 136.339 59.2158C136.259 59.3669 136.306 59.5601 136.446 59.6473C136.586 59.7346 136.765 59.6828 136.845 59.5317Z" fill="#D5D5D6"/>
<path d="M140.119 57.5369C140.2 57.3858 140.152 57.1926 140.012 57.1054C139.873 57.0182 139.694 57.0699 139.613 57.221C139.533 57.3722 139.581 57.5654 139.72 57.6526C139.86 57.7398 140.039 57.6881 140.119 57.5369Z" fill="#D5D5D6"/>
<path d="M140.111 61.5702C140.191 61.4191 140.144 61.2259 140.004 61.1386C139.864 61.0514 139.685 61.1032 139.605 61.2543C139.524 61.4054 139.572 61.5986 139.712 61.6858C139.851 61.7731 140.03 61.7213 140.111 61.5702Z" fill="#D5D5D6"/>
<path d="M106.677 41.1151C106.757 40.964 106.709 40.7708 106.57 40.6835C106.43 40.5963 106.251 40.6481 106.171 40.7992C106.09 40.9503 106.138 41.1435 106.277 41.2307C106.417 41.318 106.596 41.2662 106.677 41.1151Z" fill="#D5D5D6"/>
<path d="M106.716 45.1784C106.796 45.0274 106.749 44.8342 106.609 44.7469C106.469 44.6597 106.29 44.7114 106.21 44.8625C106.129 45.0136 106.177 45.2069 106.317 45.2941C106.456 45.3814 106.635 45.3296 106.716 45.1784Z" fill="#D5D5D6"/>
<path d="M106.755 49.2418C106.836 49.0907 106.788 48.8976 106.648 48.8103C106.508 48.7231 106.33 48.7748 106.249 48.9259C106.168 49.077 106.216 49.2703 106.356 49.3575C106.496 49.4447 106.674 49.3929 106.755 49.2418Z" fill="#D5D5D6"/>
<path d="M106.795 53.3051C106.875 53.1541 106.827 52.9608 106.688 52.8736C106.548 52.7864 106.369 52.8382 106.288 52.9892C106.208 53.1403 106.256 53.3335 106.395 53.4208C106.535 53.508 106.714 53.4563 106.795 53.3051Z" fill="#D5D5D6"/>
<path d="M106.834 57.3684C106.915 57.2173 106.867 57.0241 106.727 56.9368C106.587 56.8496 106.408 56.9014 106.328 57.0525C106.247 57.2036 106.295 57.3968 106.435 57.484C106.574 57.5713 106.753 57.5195 106.834 57.3684Z" fill="#D5D5D6"/>
<path d="M109.942 43.1535C110.023 43.0025 109.975 42.8092 109.835 42.722C109.695 42.6347 109.516 42.6866 109.436 42.8376C109.355 42.9888 109.403 43.1819 109.543 43.2692C109.682 43.3564 109.861 43.3047 109.942 43.1535Z" fill="#D5D5D6"/>
<path d="M109.981 47.2169C110.062 47.0658 110.014 46.8726 109.874 46.7854C109.734 46.6982 109.556 46.7499 109.475 46.901C109.394 47.0521 109.442 47.2453 109.582 47.3326C109.722 47.4198 109.901 47.368 109.981 47.2169Z" fill="#D5D5D6"/>
<path d="M110.02 51.2803C110.101 51.1292 110.053 50.936 109.914 50.8488C109.774 50.7615 109.595 50.8133 109.514 50.9644C109.434 51.1155 109.482 51.3087 109.621 51.396C109.761 51.4832 109.94 51.4314 110.02 51.2803Z" fill="#D5D5D6"/>
<path d="M106.652 41.1607C106.733 41.0096 106.685 40.8164 106.545 40.7292C106.405 40.642 106.227 40.6937 106.146 40.8448C106.065 40.9959 106.113 41.1892 106.253 41.2764C106.393 41.3636 106.571 41.3118 106.652 41.1607Z" fill="#D5D5D6"/>
<path d="M109.926 39.166C110.007 39.0149 109.959 38.8217 109.819 38.7345C109.68 38.6472 109.501 38.699 109.42 38.8501C109.339 39.0012 109.387 39.1944 109.527 39.2816C109.667 39.3689 109.846 39.3171 109.926 39.166Z" fill="#D5D5D6"/>
<path d="M113.2 37.1711C113.281 37.02 113.233 36.8268 113.093 36.7395C112.954 36.6523 112.775 36.7041 112.694 36.8552C112.614 37.0063 112.662 37.1995 112.801 37.2867C112.941 37.374 113.12 37.3222 113.2 37.1711Z" fill="#D5D5D6"/>
<path d="M116.474 35.1764C116.555 35.0252 116.507 34.8321 116.367 34.7448C116.228 34.6576 116.049 34.7093 115.968 34.8604C115.888 35.0116 115.936 35.2048 116.075 35.292C116.215 35.3792 116.394 35.3275 116.474 35.1764Z" fill="#D5D5D6"/>
<path d="M119.752 33.1751C119.833 33.024 119.785 32.8308 119.645 32.7436C119.505 32.6563 119.327 32.7081 119.246 32.8592C119.165 33.0103 119.213 33.2035 119.353 33.2907C119.493 33.378 119.671 33.3262 119.752 33.1751Z" fill="#D5D5D6"/>
<path d="M109.918 43.1992C109.998 43.0481 109.95 42.8549 109.811 42.7677C109.671 42.6804 109.492 42.7322 109.411 42.8833C109.331 43.0344 109.379 43.2276 109.518 43.3148C109.658 43.4021 109.837 43.3503 109.918 43.1992Z" fill="#D5D5D6"/>
<path d="M113.192 41.2045C113.272 41.0534 113.224 40.8602 113.085 40.7729C112.945 40.6857 112.766 40.7375 112.686 40.8886C112.605 41.0396 112.653 41.2329 112.792 41.3201C112.932 41.4073 113.111 41.3556 113.192 41.2045Z" fill="#D5D5D6"/>
<path d="M116.466 39.2096C116.546 39.0585 116.498 38.8652 116.359 38.778C116.219 38.6908 116.04 38.7426 115.96 38.8937C115.879 39.0448 115.927 39.238 116.067 39.3252C116.206 39.4124 116.385 39.3607 116.466 39.2096Z" fill="#D5D5D6"/>
<path d="M124.027 30.8409C124.107 30.6898 124.059 30.4966 123.92 30.4093C123.78 30.3221 123.601 30.3739 123.521 30.5249C123.44 30.6761 123.488 30.8693 123.627 30.9565C123.767 31.0437 123.946 30.992 124.027 30.8409Z" fill="#D5D5D6"/>
<path d="M127.219 24.7565C127.3 24.6054 127.252 24.4122 127.112 24.325C126.973 24.2377 126.794 24.2895 126.713 24.4406C126.633 24.5917 126.68 24.7849 126.82 24.8722C126.96 24.9594 127.139 24.9076 127.219 24.7565Z" fill="#D5D5D6"/>
<path d="M127.253 28.816C127.333 28.6649 127.285 28.4717 127.146 28.3844C127.006 28.2972 126.827 28.349 126.747 28.5001C126.666 28.6511 126.714 28.8444 126.854 28.9316C126.993 29.0188 127.172 28.9671 127.253 28.816Z" fill="#D5D5D6"/>
<path d="M127.292 32.8793C127.373 32.7283 127.325 32.535 127.185 32.4478C127.045 32.3605 126.867 32.4124 126.786 32.5634C126.705 32.7146 126.753 32.9077 126.893 32.995C127.033 33.0822 127.211 33.0305 127.292 32.8793Z" fill="#D5D5D6"/>
<path d="M130.638 14.7743C130.805 14.4613 130.706 14.0611 130.416 13.8804C130.127 13.6997 129.757 13.8069 129.589 14.1199C129.422 14.4328 129.521 14.8331 129.811 15.0138C130.1 15.1945 130.471 15.0872 130.638 14.7743Z" fill="#D5D5D6"/>
<path d="M130.677 18.8375C130.844 18.5245 130.745 18.1243 130.456 17.9436C130.166 17.7629 129.796 17.8701 129.629 18.1831C129.462 18.4961 129.561 18.8963 129.85 19.0771C130.14 19.2577 130.51 19.1505 130.677 18.8375Z" fill="#D5D5D6"/>
<path d="M130.716 22.9009C130.883 22.5879 130.784 22.1876 130.495 22.007C130.205 21.8262 129.835 21.9335 129.668 22.2465C129.501 22.5595 129.6 22.9597 129.89 23.1404C130.179 23.3211 130.549 23.2139 130.716 22.9009Z" fill="#D5D5D6"/>
<path d="M130.756 26.9641C130.923 26.6511 130.824 26.2509 130.534 26.0702C130.245 25.8895 129.875 25.9967 129.708 26.3097C129.54 26.6227 129.64 27.0229 129.929 27.2036C130.218 27.3843 130.589 27.2771 130.756 26.9641Z" fill="#D5D5D6"/>
<path d="M130.789 31.0236C130.956 30.7106 130.857 30.3103 130.568 30.1297C130.278 29.9489 129.908 30.0562 129.741 30.3692C129.574 30.6822 129.673 31.0824 129.962 31.2631C130.252 31.4438 130.622 31.3366 130.789 31.0236Z" fill="#D5D5D6"/>
<path d="M130.557 34.9177C130.638 34.7667 130.59 34.5734 130.45 34.4862C130.31 34.3989 130.132 34.4507 130.051 34.6018C129.97 34.7529 130.018 34.9461 130.158 35.0333C130.298 35.1206 130.476 35.0688 130.557 34.9177Z" fill="#D5D5D6"/>
<path d="M134.427 17.1398C134.761 16.5138 134.563 15.7133 133.984 15.3519C133.405 14.9905 132.665 15.205 132.331 15.831C131.996 16.457 132.195 17.2574 132.774 17.6188C133.353 17.9802 134.093 17.7658 134.427 17.1398Z" fill="#D5D5D6"/>
<path d="M134.466 21.203C134.801 20.5771 134.602 19.7766 134.023 19.4152C133.444 19.0537 132.704 19.2683 132.37 19.8942C132.036 20.5202 132.234 21.3206 132.813 21.6821C133.392 22.0435 134.132 21.829 134.466 21.203Z" fill="#D5D5D6"/>
<path d="M134.506 25.2664C134.84 24.6404 134.642 23.84 134.063 23.4786C133.484 23.1172 132.743 23.3316 132.409 23.9576C132.075 24.5836 132.273 25.384 132.852 25.7455C133.431 26.1069 134.172 25.8924 134.506 25.2664Z" fill="#D5D5D6"/>
<path d="M134.539 29.326C134.873 28.7001 134.675 27.8996 134.096 27.5382C133.517 27.1767 132.777 27.3913 132.443 28.0172C132.108 28.6432 132.307 29.4436 132.886 29.8051C133.465 30.1665 134.205 29.952 134.539 29.326Z" fill="#D5D5D6"/>
<path d="M134.054 33.0619C134.221 32.7489 134.122 32.3487 133.833 32.168C133.543 31.9873 133.173 32.0945 133.006 32.4075C132.839 32.7205 132.938 33.1208 133.228 33.3015C133.517 33.4822 133.887 33.3749 134.054 33.0619Z" fill="#D5D5D6"/>
<path d="M133.822 36.9561C133.903 36.805 133.855 36.6118 133.715 36.5245C133.576 36.4373 133.397 36.4891 133.316 36.6402C133.236 36.7913 133.284 36.9845 133.423 37.0717C133.563 37.159 133.742 37.1072 133.822 36.9561Z" fill="#D5D5D6"/>
<path d="M137.692 19.1781C138.027 18.5522 137.828 17.7517 137.249 17.3903C136.67 17.0289 135.93 17.2434 135.596 17.8693C135.262 18.4953 135.46 19.2958 136.039 19.6572C136.618 20.0186 137.358 19.8041 137.692 19.1781Z" fill="#D5D5D6"/>
<path d="M137.732 23.2414C138.066 22.6154 137.868 21.8149 137.289 21.4535C136.71 21.0921 135.969 21.3066 135.635 21.9326C135.301 22.5586 135.499 23.359 136.078 23.7204C136.657 24.0818 137.397 23.8674 137.732 23.2414Z" fill="#D5D5D6"/>
<path d="M137.765 27.301C138.099 26.675 137.901 25.8746 137.322 25.5132C136.743 25.1518 136.003 25.3662 135.668 25.9922C135.334 26.6182 135.533 27.4187 136.111 27.7801C136.69 28.1415 137.431 27.927 137.765 27.301Z" fill="#D5D5D6"/>
<path d="M137.804 31.3644C138.139 30.7384 137.94 29.938 137.361 29.5765C136.782 29.2152 136.042 29.4296 135.708 30.0556C135.374 30.6816 135.572 31.482 136.151 31.8434C136.73 32.2049 137.47 31.9904 137.804 31.3644Z" fill="#D5D5D6"/>
<path d="M137.319 35.1003C137.487 34.7873 137.387 34.3871 137.098 34.2064C136.808 34.0257 136.438 34.1329 136.271 34.4459C136.104 34.7589 136.203 35.1591 136.493 35.3398C136.782 35.5206 137.152 35.4133 137.319 35.1003Z" fill="#D5D5D6"/>
<path d="M137.088 38.9946C137.168 38.8435 137.121 38.6503 136.981 38.563C136.841 38.4758 136.662 38.5276 136.582 38.6787C136.501 38.8298 136.549 39.023 136.689 39.1102C136.828 39.1975 137.007 39.1457 137.088 38.9946Z" fill="#D5D5D6"/>
<path d="M140.433 20.8895C140.601 20.5765 140.501 20.1763 140.212 19.9956C139.922 19.8149 139.552 19.9221 139.385 20.2351C139.218 20.5481 139.317 20.9483 139.607 21.1291C139.896 21.3098 140.266 21.2025 140.433 20.8895Z" fill="#D5D5D6"/>
<path d="M140.467 24.949C140.634 24.636 140.535 24.2358 140.245 24.0551C139.956 23.8744 139.586 23.9816 139.419 24.2946C139.251 24.6075 139.351 25.0078 139.64 25.1885C139.929 25.3692 140.3 25.2619 140.467 24.949Z" fill="#D5D5D6"/>
<path d="M140.506 29.0123C140.673 28.6993 140.574 28.2991 140.285 28.1184C139.995 27.9377 139.625 28.0449 139.458 28.3579C139.291 28.6709 139.39 29.0712 139.679 29.2519C139.969 29.4325 140.339 29.3253 140.506 29.0123Z" fill="#D5D5D6"/>
<path d="M140.546 33.0756C140.713 32.7626 140.613 32.3623 140.324 32.1816C140.035 32.0009 139.664 32.1082 139.497 32.4212C139.33 32.7342 139.429 33.1344 139.719 33.3151C140.008 33.4958 140.378 33.3886 140.546 33.0756Z" fill="#D5D5D6"/>
<path d="M140.314 36.9696C140.394 36.8185 140.346 36.6253 140.207 36.538C140.067 36.4508 139.888 36.5026 139.808 36.6537C139.727 36.8047 139.775 36.998 139.915 37.0852C140.054 37.1725 140.233 37.1207 140.314 36.9696Z" fill="#D5D5D6"/>
<path d="M140.353 41.0329C140.434 40.8819 140.386 40.6886 140.246 40.6014C140.106 40.5142 139.928 40.566 139.847 40.717C139.766 40.8682 139.814 41.0614 139.954 41.1486C140.094 41.2358 140.272 41.1841 140.353 41.0329Z" fill="#D5D5D6"/>
<path d="M143.421 22.7549C143.502 22.6038 143.454 22.4106 143.314 22.3233C143.175 22.2361 142.996 22.2879 142.915 22.4389C142.835 22.5901 142.883 22.7833 143.022 22.8705C143.162 22.9577 143.341 22.906 143.421 22.7549Z" fill="#D5D5D6"/>
<path d="M143.461 26.8181C143.541 26.667 143.494 26.4738 143.354 26.3865C143.214 26.2993 143.035 26.351 142.955 26.5022C142.874 26.6532 142.922 26.8465 143.062 26.9337C143.201 27.021 143.38 26.9691 143.461 26.8181Z" fill="#D5D5D6"/>
<path d="M142.053 33.303C142.134 33.1519 142.086 32.9587 141.947 32.8714C141.807 32.7842 141.628 32.836 141.547 32.9871C141.467 33.1382 141.515 33.3314 141.654 33.4186C141.794 33.5059 141.973 33.4541 142.053 33.303Z" fill="#D5D5D6"/>
<path d="M143.539 34.9447C143.62 34.7936 143.572 34.6004 143.433 34.5132C143.293 34.426 143.114 34.4777 143.033 34.6288C142.953 34.7799 143.001 34.9732 143.14 35.0604C143.28 35.1476 143.459 35.0958 143.539 34.9447Z" fill="#D5D5D6"/>
<path d="M143.579 39.008C143.66 38.8568 143.612 38.6637 143.472 38.5764C143.332 38.4892 143.154 38.5409 143.073 38.692C142.992 38.8431 143.04 39.0364 143.18 39.1236C143.32 39.2108 143.498 39.159 143.579 39.008Z" fill="#D5D5D6"/>
<path d="M146.687 24.7933C146.767 24.6423 146.72 24.449 146.58 24.3618C146.44 24.2745 146.261 24.3264 146.181 24.4774C146.1 24.6286 146.148 24.8217 146.288 24.909C146.427 24.9962 146.606 24.9445 146.687 24.7933Z" fill="#D5D5D6"/>
<path d="M146.726 28.8566C146.807 28.7054 146.759 28.5123 146.619 28.425C146.48 28.3378 146.301 28.3895 146.22 28.5406C146.14 28.6917 146.187 28.8849 146.327 28.9722C146.467 29.0595 146.646 29.0076 146.726 28.8566Z" fill="#D5D5D6"/>
<path d="M146.766 32.9198C146.846 32.7687 146.798 32.5755 146.659 32.4882C146.519 32.401 146.34 32.4527 146.259 32.6039C146.179 32.755 146.227 32.9482 146.366 33.0354C146.506 33.1227 146.685 33.0709 146.766 32.9198Z" fill="#D5D5D6"/>
<path d="M146.805 36.9832C146.886 36.8321 146.838 36.6389 146.698 36.5517C146.558 36.4644 146.379 36.5162 146.299 36.6673C146.218 36.8184 146.266 37.0116 146.406 37.0989C146.546 37.1861 146.724 37.1343 146.805 36.9832Z" fill="#D5D5D6"/>
<path d="M149.952 26.8317C150.033 26.6806 149.985 26.4874 149.845 26.4002C149.705 26.3129 149.527 26.3647 149.446 26.5158C149.365 26.6669 149.413 26.8601 149.553 26.9473C149.693 27.0346 149.871 26.9828 149.952 26.8317Z" fill="#D5D5D6"/>
<path d="M149.991 30.8949C150.072 30.7438 150.024 30.5506 149.884 30.4634C149.745 30.3762 149.566 30.4279 149.485 30.579C149.405 30.7301 149.453 30.9234 149.592 31.0106C149.732 31.0978 149.911 31.046 149.991 30.8949Z" fill="#D5D5D6"/>
<path d="M150.031 34.9582C150.111 34.807 150.064 34.6139 149.924 34.5266C149.784 34.4394 149.605 34.4911 149.525 34.6422C149.444 34.7934 149.492 34.9866 149.632 35.0738C149.771 35.1611 149.95 35.1093 150.031 34.9582Z" fill="#D5D5D6"/>
<path d="M153.217 28.8701C153.298 28.719 153.25 28.5258 153.11 28.4385C152.97 28.3513 152.792 28.4031 152.711 28.5542C152.63 28.7053 152.678 28.8985 152.818 28.9857C152.958 29.073 153.136 29.0212 153.217 28.8701Z" fill="#D5D5D6"/>
<path d="M153.257 32.9333C153.337 32.7822 153.289 32.589 153.15 32.5018C153.01 32.4145 152.831 32.4663 152.751 32.6174C152.67 32.7685 152.718 32.9617 152.857 33.0489C152.997 33.1362 153.176 33.0844 153.257 32.9333Z" fill="#D5D5D6"/>
<path d="M156.483 30.9086C156.563 30.7575 156.515 30.5643 156.376 30.477C156.236 30.3898 156.057 30.4416 155.977 30.5926C155.896 30.7438 155.944 30.937 156.083 31.0242C156.223 31.1114 156.402 31.0597 156.483 30.9086Z" fill="#D5D5D6"/>
<path d="M140.18 0.589505C140.26 0.438444 140.212 0.24521 140.073 0.157957C139.933 0.0707415 139.754 0.122528 139.674 0.273589C139.593 0.424716 139.641 0.617986 139.78 0.705201C139.92 0.792454 140.099 0.740632 140.18 0.589505Z" fill="#D5D5D6"/>
<path d="M136.899 6.62779C136.98 6.47666 136.932 6.2835 136.792 6.19624C136.653 6.10899 136.474 6.16075 136.393 6.31187C136.313 6.46294 136.36 6.65618 136.5 6.74343C136.64 6.83068 136.819 6.77885 136.899 6.62779Z" fill="#D5D5D6"/>
<path d="M140.171 4.62272C140.251 4.47166 140.204 4.27845 140.064 4.19123C139.924 4.10398 139.745 4.15574 139.665 4.3068C139.584 4.45793 139.632 4.65116 139.772 4.73841C139.911 4.82563 140.09 4.77384 140.171 4.62272Z" fill="#D5D5D6"/>
<path d="M143.445 2.62799C143.525 2.47693 143.478 2.28365 143.338 2.19644C143.198 2.10919 143.019 2.16101 142.939 2.31207C142.858 2.4632 142.906 2.65643 143.046 2.74368C143.185 2.8309 143.364 2.77911 143.445 2.62799Z" fill="#D5D5D6"/>
<path d="M130.613 14.8199C130.78 14.5069 130.681 14.1066 130.392 13.926C130.102 13.7453 129.732 13.8525 129.565 14.1655C129.398 14.4785 129.497 14.8787 129.787 15.0594C130.076 15.2401 130.446 15.1329 130.613 14.8199Z" fill="#D5D5D6"/>
<path d="M133.887 12.825C134.055 12.512 133.955 12.1118 133.666 11.9311C133.376 11.7504 133.006 11.8576 132.839 12.1706C132.672 12.4836 132.771 12.8839 133.061 13.0646C133.35 13.2452 133.72 13.138 133.887 12.825Z" fill="#D5D5D6"/>
<path d="M137.162 10.8301C137.329 10.5171 137.229 10.1169 136.94 9.93618C136.651 9.75547 136.28 9.86271 136.113 10.1757C135.946 10.4887 136.045 10.8889 136.335 11.0696C136.624 11.2503 136.994 11.1431 137.162 10.8301Z" fill="#D5D5D6"/>
<path d="M140.436 8.83537C140.603 8.52237 140.504 8.12212 140.214 7.94145C139.925 7.76074 139.555 7.86797 139.387 8.18097C139.22 8.49397 139.319 8.89419 139.609 9.0749C139.898 9.25557 140.269 9.14837 140.436 8.83537Z" fill="#D5D5D6"/>
<path d="M143.707 6.83039C143.874 6.51738 143.775 6.11713 143.486 5.93646C143.196 5.75575 142.826 5.86299 142.659 6.17599C142.492 6.48899 142.591 6.8892 142.881 7.06991C143.17 7.25058 143.54 7.14339 143.707 6.83039Z" fill="#D5D5D6"/>
<path d="M146.71 4.66636C146.791 4.5153 146.743 4.32206 146.603 4.23481C146.463 4.14756 146.285 4.19938 146.204 4.35044C146.123 4.50157 146.171 4.6948 146.311 4.78205C146.451 4.86931 146.629 4.81748 146.71 4.66636Z" fill="#D5D5D6"/>
<path d="M134.403 17.1854C134.737 16.5594 134.539 15.759 133.96 15.3976C133.381 15.0362 132.64 15.2506 132.306 15.8766C131.972 16.5026 132.17 17.3031 132.749 17.6645C133.328 18.0259 134.068 17.8114 134.403 17.1854Z" fill="#D5D5D6"/>
<path d="M137.677 15.1905C138.011 14.5645 137.813 13.7641 137.234 13.4027C136.655 13.0412 135.915 13.2557 135.58 13.8817C135.246 14.5077 135.444 15.3081 136.023 15.6696C136.602 16.031 137.343 15.8165 137.677 15.1905Z" fill="#D5D5D6"/>
<path d="M140.951 13.1958C141.285 12.5698 141.087 11.7693 140.508 11.4079C139.929 11.0465 139.189 11.261 138.854 11.887C138.52 12.513 138.719 13.3134 139.298 13.6748C139.876 14.0362 140.617 13.8218 140.951 13.1958Z" fill="#D5D5D6"/>
<path d="M144.219 11.1974C144.553 10.5714 144.355 9.77093 143.776 9.40951C143.197 9.04809 142.457 9.26256 142.122 9.88856C141.788 10.5145 141.987 11.3149 142.566 11.6763C143.144 12.0378 143.885 11.8233 144.219 11.1974Z" fill="#D5D5D6"/>
<path d="M146.972 8.86875C147.139 8.55575 147.04 8.15554 146.751 7.97483C146.461 7.79412 146.091 7.90136 145.924 8.21436C145.757 8.52736 145.856 8.92757 146.146 9.10828C146.435 9.28899 146.805 9.18175 146.972 8.86875Z" fill="#D5D5D6"/>
<path d="M149.975 6.70473C150.056 6.55367 150.008 6.36043 149.868 6.27318C149.729 6.18596 149.55 6.23775 149.469 6.38881C149.389 6.53994 149.436 6.73321 149.576 6.82042C149.716 6.90768 149.895 6.85585 149.975 6.70473Z" fill="#D5D5D6"/>
<path d="M137.668 19.2238C138.002 18.5978 137.804 17.7974 137.225 17.436C136.646 17.0746 135.906 17.289 135.571 17.915C135.237 18.541 135.436 19.3415 136.015 19.7029C136.593 20.0643 137.334 19.8498 137.668 19.2238Z" fill="#D5D5D6"/>
<path d="M139.495 19.6506C139.83 19.0246 139.631 18.2241 139.052 17.8627C138.473 17.5013 137.733 17.7158 137.399 18.3418C137.065 18.9678 137.263 19.7682 137.842 20.1296C138.421 20.491 139.161 20.2766 139.495 19.6506Z" fill="#D5D5D6"/>
<path d="M144.21 15.2304C144.544 14.6044 144.346 13.804 143.767 13.4425C143.188 13.0812 142.448 13.2956 142.114 13.9216C141.779 14.5476 141.978 15.348 142.557 15.7094C143.136 16.0709 143.876 15.8564 144.21 15.2304Z" fill="#D5D5D6"/>
<path d="M147.484 13.2357C147.818 12.6097 147.62 11.8093 147.041 11.4479C146.462 11.0865 145.722 11.3009 145.388 11.9269C145.053 12.5529 145.252 13.3533 145.831 13.7147C146.41 14.0761 147.15 13.8617 147.484 13.2357Z" fill="#D5D5D6"/>
<path d="M150.238 10.9071C150.405 10.5941 150.306 10.1939 150.016 10.0132C149.727 9.83249 149.356 9.93973 149.189 10.2527C149.022 10.5657 149.121 10.9659 149.411 11.1466C149.7 11.3274 150.07 11.2201 150.238 10.9071Z" fill="#D5D5D6"/>
<path d="M153.241 8.74321C153.321 8.59215 153.273 8.39892 153.134 8.31166C152.994 8.22441 152.815 8.27624 152.735 8.4273C152.654 8.57842 152.702 8.77166 152.842 8.85891C152.981 8.94616 153.16 8.89434 153.241 8.74321Z" fill="#D5D5D6"/>
<path d="M140.409 20.9351C140.576 20.6221 140.477 20.2219 140.188 20.0412C139.898 19.8605 139.528 19.9677 139.361 20.2807C139.194 20.5937 139.293 20.9939 139.582 21.1746C139.872 21.3554 140.242 21.2481 140.409 20.9351Z" fill="#D5D5D6"/>
<path d="M143.677 18.9364C143.844 18.6235 143.745 18.2232 143.456 18.0426C143.166 17.8619 142.796 17.9691 142.629 18.282C142.462 18.595 142.561 18.9953 142.85 19.176C143.14 19.3567 143.51 19.2494 143.677 18.9364Z" fill="#D5D5D6"/>
<path d="M146.951 16.9416C147.119 16.6286 147.019 16.2283 146.73 16.0476C146.44 15.8669 146.07 15.9742 145.903 16.2872C145.736 16.6002 145.835 17.0004 146.125 17.1811C146.414 17.3618 146.784 17.2546 146.951 16.9416Z" fill="#D5D5D6"/>
<path d="M150.225 14.9468C150.393 14.6338 150.293 14.2336 150.004 14.0529C149.714 13.8722 149.344 13.9794 149.177 14.2924C149.01 14.6054 149.109 15.0057 149.399 15.1864C149.688 15.367 150.058 15.2598 150.225 14.9468Z" fill="#D5D5D6"/>
<path d="M153.232 12.7763C153.312 12.6253 153.265 12.4321 153.125 12.3448C152.985 12.2576 152.806 12.3093 152.726 12.4604C152.645 12.6115 152.693 12.8048 152.833 12.892C152.972 12.9793 153.151 12.9274 153.232 12.7763Z" fill="#D5D5D6"/>
<path d="M156.506 10.7816C156.587 10.6305 156.539 10.4373 156.399 10.35C156.259 10.2628 156.08 10.3146 156 10.4657C155.919 10.6168 155.967 10.8101 156.107 10.8973C156.246 10.9845 156.425 10.9327 156.506 10.7816Z" fill="#D5D5D6"/>
<path d="M143.397 22.8003C143.478 22.6493 143.43 22.456 143.29 22.3688C143.151 22.2816 142.972 22.3333 142.891 22.4844C142.81 22.6355 142.858 22.8287 142.998 22.916C143.138 23.0032 143.316 22.9514 143.397 22.8003Z" fill="#D5D5D6"/>
<path d="M146.671 20.8056C146.752 20.6545 146.704 20.4613 146.564 20.374C146.425 20.2868 146.246 20.3385 146.165 20.4897C146.084 20.6408 146.132 20.834 146.272 20.9212C146.412 21.0085 146.591 20.9567 146.671 20.8056Z" fill="#D5D5D6"/>
<path d="M149.945 18.8109C150.026 18.6597 149.978 18.4666 149.838 18.3793C149.699 18.2921 149.52 18.3438 149.439 18.4949C149.358 18.6461 149.406 18.8393 149.546 18.9265C149.686 19.0137 149.865 18.962 149.945 18.8109Z" fill="#D5D5D6"/>
<path d="M153.219 16.816C153.3 16.6649 153.252 16.4717 153.113 16.3845C152.973 16.2972 152.794 16.349 152.713 16.5001C152.633 16.6511 152.681 16.8444 152.82 16.9316C152.96 17.0189 153.139 16.9671 153.219 16.816Z" fill="#D5D5D6"/>
<path d="M156.497 14.8147C156.578 14.6636 156.53 14.4705 156.39 14.3832C156.25 14.296 156.072 14.3477 155.991 14.4988C155.91 14.6499 155.958 14.8432 156.098 14.9304C156.238 15.0176 156.416 14.9658 156.497 14.8147Z" fill="#D5D5D6"/>
<path d="M146.662 24.8388C146.743 24.6877 146.695 24.4945 146.556 24.4072C146.416 24.32 146.237 24.3718 146.156 24.5229C146.076 24.674 146.124 24.8672 146.263 24.9544C146.403 25.0417 146.582 24.9899 146.662 24.8388Z" fill="#D5D5D6"/>
<path d="M149.937 22.8441C150.017 22.6929 149.969 22.4998 149.83 22.4125C149.69 22.3253 149.511 22.377 149.431 22.5282C149.35 22.6793 149.398 22.8725 149.538 22.9597C149.677 23.047 149.856 22.9952 149.937 22.8441Z" fill="#D5D5D6"/>
<path d="M153.211 20.8493C153.291 20.6982 153.244 20.505 153.104 20.4178C152.964 20.3305 152.785 20.3823 152.705 20.5334C152.624 20.6845 152.672 20.8777 152.812 20.965C152.951 21.0522 153.13 21.0005 153.211 20.8493Z" fill="#D5D5D6"/>
<path d="M156.485 18.8545C156.566 18.7034 156.518 18.5102 156.378 18.4229C156.238 18.3357 156.059 18.3874 155.979 18.5386C155.898 18.6896 155.946 18.8829 156.086 18.9701C156.226 19.0574 156.404 19.0055 156.485 18.8545Z" fill="#D5D5D6"/>
<path d="M149.928 26.8772C150.008 26.7261 149.961 26.5329 149.821 26.4456C149.681 26.3584 149.502 26.4102 149.422 26.5613C149.341 26.7124 149.389 26.9056 149.529 26.9928C149.668 27.0801 149.847 27.0283 149.928 26.8772Z" fill="#D5D5D6"/>
<path d="M153.202 24.8824C153.282 24.7313 153.235 24.5381 153.095 24.4509C152.955 24.3637 152.776 24.4154 152.696 24.5665C152.615 24.7176 152.663 24.9109 152.803 24.9981C152.942 25.0853 153.121 25.0336 153.202 24.8824Z" fill="#D5D5D6"/>
<path d="M156.476 22.8877C156.557 22.7366 156.509 22.5434 156.369 22.4562C156.229 22.3689 156.051 22.4207 155.97 22.5718C155.889 22.7229 155.937 22.9161 156.077 23.0033C156.217 23.0906 156.395 23.0388 156.476 22.8877Z" fill="#D5D5D6"/>
<path d="M153.193 28.9155C153.274 28.7645 153.226 28.5712 153.086 28.484C152.946 28.3968 152.768 28.4486 152.687 28.5996C152.606 28.7508 152.654 28.944 152.794 29.0312C152.934 29.1184 153.112 29.0667 153.193 28.9155Z" fill="#D5D5D6"/>
<path d="M156.467 26.9208C156.548 26.7697 156.5 26.5765 156.36 26.4893C156.22 26.402 156.042 26.4538 155.961 26.6049C155.88 26.756 155.928 26.9492 156.068 27.0364C156.208 27.1237 156.386 27.0719 156.467 26.9208Z" fill="#D5D5D6"/>
<path d="M156.458 30.954C156.539 30.803 156.491 30.6097 156.351 30.5225C156.212 30.4353 156.033 30.487 155.952 30.6381C155.872 30.7892 155.919 30.9824 156.059 31.0697C156.199 31.1569 156.378 31.1052 156.458 30.954Z" fill="#D5D5D6"/>
<path d="M123.024 10.4989C123.105 10.3479 123.057 10.1546 122.917 10.0674C122.778 9.98017 122.599 10.032 122.518 10.183C122.437 10.3341 122.485 10.5274 122.625 10.6146C122.765 10.7018 122.944 10.6501 123.024 10.4989Z" fill="#D5D5D6"/>
<path d="M123.063 14.5623C123.144 14.4112 123.096 14.2181 122.956 14.1308C122.817 14.0436 122.638 14.0953 122.557 14.2464C122.477 14.3975 122.525 14.5908 122.664 14.678C122.804 14.7653 122.983 14.7134 123.063 14.5623Z" fill="#D5D5D6"/>
<path d="M123.103 18.6257C123.183 18.4746 123.136 18.2814 122.996 18.1942C122.856 18.1069 122.677 18.1587 122.597 18.3098C122.516 18.4609 122.564 18.6541 122.704 18.7413C122.843 18.8286 123.022 18.7768 123.103 18.6257Z" fill="#D5D5D6"/>
<path d="M123.142 22.6889C123.223 22.5379 123.175 22.3446 123.035 22.2574C122.896 22.1702 122.717 22.222 122.636 22.373C122.555 22.5242 122.603 22.7174 122.743 22.8046C122.883 22.8918 123.061 22.8401 123.142 22.6889Z" fill="#D5D5D6"/>
<path d="M123.182 26.7522C123.262 26.6011 123.214 26.4079 123.075 26.3206C122.935 26.2334 122.756 26.2852 122.676 26.4363C122.595 26.5874 122.643 26.7806 122.782 26.8678C122.922 26.9551 123.101 26.9033 123.182 26.7522Z" fill="#D5D5D6"/>
<path d="M126.289 12.5374C126.37 12.3864 126.322 12.1931 126.183 12.1059C126.043 12.0186 125.864 12.0704 125.783 12.2215C125.703 12.3726 125.751 12.5658 125.89 12.6531C126.03 12.7403 126.209 12.6886 126.289 12.5374Z" fill="#D5D5D6"/>
<path d="M126.329 16.6008C126.409 16.4497 126.362 16.2565 126.222 16.1693C126.082 16.082 125.903 16.1338 125.823 16.2849C125.742 16.436 125.79 16.6292 125.93 16.7165C126.069 16.8037 126.248 16.7519 126.329 16.6008Z" fill="#D5D5D6"/>
<path d="M126.368 20.6642C126.449 20.5131 126.401 20.3199 126.261 20.2326C126.121 20.1454 125.943 20.1972 125.862 20.3483C125.781 20.4993 125.829 20.6926 125.969 20.7798C126.109 20.867 126.287 20.8153 126.368 20.6642Z" fill="#D5D5D6"/>
<path d="M123 10.5446C123.08 10.3935 123.033 10.2003 122.893 10.1131C122.753 10.0258 122.574 10.0776 122.494 10.2287C122.413 10.3797 122.461 10.573 122.601 10.6602C122.74 10.7475 122.919 10.6957 123 10.5446Z" fill="#D5D5D6"/>
<path d="M126.274 8.54987C126.355 8.39875 126.307 8.20557 126.167 8.11832C126.027 8.0311 125.849 8.08283 125.768 8.23396C125.687 8.38502 125.735 8.57829 125.875 8.6655C126.015 8.75276 126.193 8.70093 126.274 8.54987Z" fill="#D5D5D6"/>
<path d="M129.548 6.55494C129.629 6.40388 129.581 6.21064 129.441 6.12338C129.301 6.03617 129.123 6.08796 129.042 6.23902C128.961 6.39015 129.009 6.58335 129.149 6.67057C129.289 6.75782 129.467 6.70606 129.548 6.55494Z" fill="#D5D5D6"/>
<path d="M132.822 4.56021C132.903 4.40908 132.855 4.21591 132.715 4.12866C132.575 4.04144 132.397 4.09317 132.316 4.24429C132.235 4.39542 132.283 4.58862 132.423 4.67584C132.563 4.76309 132.741 4.71133 132.822 4.56021Z" fill="#D5D5D6"/>
<path d="M136.1 2.55897C136.18 2.40784 136.132 2.21467 135.993 2.12742C135.853 2.04021 135.674 2.09193 135.594 2.24305C135.513 2.39418 135.561 2.58739 135.7 2.67461C135.84 2.76186 136.019 2.7101 136.1 2.55897Z" fill="#D5D5D6"/>
<path d="M126.265 12.5831C126.346 12.432 126.298 12.2387 126.158 12.1515C126.018 12.0643 125.84 12.116 125.759 12.2672C125.678 12.4182 125.726 12.6115 125.866 12.6987C126.006 12.7859 126.185 12.7341 126.265 12.5831Z" fill="#D5D5D6"/>
<path d="M129.539 10.5884C129.62 10.4372 129.572 10.244 129.432 10.1568C129.293 10.0695 129.114 10.1213 129.033 10.2724C128.953 10.4235 129 10.6167 129.14 10.704C129.28 10.7912 129.459 10.7394 129.539 10.5884Z" fill="#D5D5D6"/>
<path d="M132.813 8.59342C132.894 8.44236 132.846 8.24908 132.706 8.16187C132.567 8.07461 132.388 8.12644 132.307 8.2775C132.227 8.42863 132.274 8.6218 132.414 8.70905C132.554 8.79627 132.733 8.74455 132.813 8.59342Z" fill="#D5D5D6"/>
<path d="M117.728 98.984L117.248 95.888L125.888 87.2H129.8L117.728 98.984ZM115.256 104V87.2H118.376V104H115.256ZM126.272 104L119.912 95.528L122.12 93.632L130.064 104H126.272ZM143.32 104L138.088 87.2H141.352L144.328 97.112C144.424 97.416 144.512 97.752 144.592 98.12C144.672 98.488 144.744 98.856 144.808 99.224C144.872 99.576 144.928 99.904 144.976 100.208C145.024 100.512 145.072 100.768 145.12 100.976L144.472 100.952C144.664 100.2 144.816 99.592 144.928 99.128C145.04 98.664 145.136 98.28 145.216 97.976C145.312 97.656 145.408 97.36 145.504 97.088L148.336 89.84H151L153.76 97.088C153.92 97.536 154.064 97.968 154.192 98.384C154.32 98.784 154.424 99.184 154.504 99.584C154.6 99.968 154.688 100.368 154.768 100.784L154.192 100.904C154.256 100.52 154.304 100.208 154.336 99.968C154.368 99.728 154.4 99.512 154.432 99.32C154.464 99.128 154.496 98.944 154.528 98.768C154.56 98.576 154.608 98.352 154.672 98.096C154.752 97.824 154.848 97.48 154.96 97.064L157.912 87.2H161.152L155.896 104H153.64L149.368 93.776L149.656 93.872L145.6 104H143.32Z" fill="#D5D5D6"/>
<path d="M63.352 166V149.2H65.68L75.952 162.952L75.568 163.168C75.504 162.768 75.448 162.336 75.4 161.872C75.352 161.392 75.304 160.888 75.256 160.36C75.224 159.816 75.192 159.248 75.16 158.656C75.144 158.048 75.128 157.416 75.112 156.76C75.096 156.104 75.088 155.424 75.088 154.72V149.2H77.68V166H75.304L65.2 152.752L65.464 152.416C65.544 153.392 65.608 154.224 65.656 154.912C65.72 155.584 65.768 156.16 65.8 156.64C65.848 157.104 65.88 157.488 65.896 157.792C65.912 158.08 65.92 158.32 65.92 158.512C65.936 158.704 65.944 158.872 65.944 159.016V166H63.352ZM87.6393 166.24C86.3433 166.24 85.1913 165.968 84.1833 165.424C83.1913 164.864 82.4073 164.104 81.8313 163.144C81.2713 162.184 80.9913 161.08 80.9913 159.832C80.9913 158.84 81.1513 157.936 81.4713 157.12C81.7913 156.304 82.2313 155.6 82.7913 155.008C83.3673 154.4 84.0473 153.936 84.8313 153.616C85.6313 153.28 86.4953 153.112 87.4233 153.112C88.2393 153.112 88.9993 153.272 89.7033 153.592C90.4073 153.896 91.0153 154.32 91.5273 154.864C92.0553 155.408 92.4553 156.056 92.7273 156.808C93.0153 157.544 93.1513 158.352 93.1353 159.232L93.1113 160.288H82.8153L82.2633 158.32H90.9753L90.6153 158.728V158.152C90.5673 157.624 90.3913 157.152 90.0873 156.736C89.7833 156.32 89.3993 155.992 88.9353 155.752C88.4713 155.512 87.9673 155.392 87.4233 155.392C86.5593 155.392 85.8313 155.56 85.2393 155.896C84.6473 156.216 84.1993 156.696 83.8953 157.336C83.5913 157.96 83.4393 158.736 83.4393 159.664C83.4393 160.544 83.6233 161.312 83.9913 161.968C84.3593 162.608 84.8793 163.104 85.5513 163.456C86.2233 163.808 86.9993 163.984 87.8793 163.984C88.5033 163.984 89.0793 163.88 89.6073 163.672C90.1513 163.464 90.7353 163.088 91.3593 162.544L92.6073 164.296C92.2233 164.68 91.7513 165.016 91.1913 165.304C90.6473 165.592 90.0633 165.824 89.4393 166C88.8313 166.16 88.2313 166.24 87.6393 166.24ZM98.6834 166L94.3874 153.4L96.8834 153.376L99.9554 162.808L99.4034 162.76L102.739 155.392H104.227L107.587 162.784L106.939 162.832L110.035 153.4H112.531L108.283 166H106.579L103.075 157.984L103.627 158.056L100.363 166H98.6834ZM121.221 166V164.104L130.797 151.288L131.157 151.696H121.845V149.2H134.013V151.072L124.485 163.912L124.101 163.504H134.277V166H121.221ZM143.092 166.24C141.796 166.24 140.644 165.968 139.636 165.424C138.644 164.864 137.86 164.104 137.284 163.144C136.724 162.184 136.444 161.08 136.444 159.832C136.444 158.84 136.604 157.936 136.924 157.12C137.244 156.304 137.684 155.6 138.244 155.008C138.82 154.4 139.5 153.936 140.284 153.616C141.084 153.28 141.948 153.112 142.876 153.112C143.692 153.112 144.452 153.272 145.156 153.592C145.86 153.896 146.468 154.32 146.98 154.864C147.508 155.408 147.908 156.056 148.18 156.808C148.468 157.544 148.604 158.352 148.588 159.232L148.564 160.288H138.268L137.716 158.32H146.428L146.068 158.728V158.152C146.02 157.624 145.844 157.152 145.54 156.736C145.236 156.32 144.852 155.992 144.388 155.752C143.924 155.512 143.42 155.392 142.876 155.392C142.012 155.392 141.284 155.56 140.692 155.896C140.1 156.216 139.652 156.696 139.348 157.336C139.044 157.96 138.892 158.736 138.892 159.664C138.892 160.544 139.076 161.312 139.444 161.968C139.812 162.608 140.332 163.104 141.004 163.456C141.676 163.808 142.452 163.984 143.332 163.984C143.956 163.984 144.532 163.88 145.06 163.672C145.604 163.464 146.188 163.088 146.812 162.544L148.06 164.296C147.676 164.68 147.204 165.016 146.644 165.304C146.1 165.592 145.516 165.824 144.892 166C144.284 166.16 143.684 166.24 143.092 166.24ZM156.123 166.24C155.083 166.24 154.131 165.952 153.267 165.376C152.419 164.8 151.739 164.016 151.227 163.024C150.715 162.032 150.459 160.912 150.459 159.664C150.459 158.4 150.715 157.28 151.227 156.304C151.755 155.312 152.459 154.536 153.339 153.976C154.235 153.416 155.235 153.136 156.339 153.136C156.995 153.136 157.595 153.232 158.139 153.424C158.683 153.616 159.155 153.888 159.555 154.24C159.971 154.576 160.307 154.968 160.563 155.416C160.835 155.864 161.003 156.344 161.067 156.856L160.515 156.664V153.4H163.011V166H160.515V163L161.091 162.832C160.995 163.264 160.795 163.688 160.491 164.104C160.203 164.504 159.827 164.864 159.363 165.184C158.915 165.504 158.411 165.76 157.851 165.952C157.307 166.144 156.731 166.24 156.123 166.24ZM156.771 163.96C157.523 163.96 158.187 163.776 158.763 163.408C159.339 163.04 159.787 162.536 160.107 161.896C160.443 161.24 160.611 160.496 160.611 159.664C160.611 158.848 160.443 158.12 160.107 157.48C159.787 156.84 159.339 156.336 158.763 155.968C158.187 155.6 157.523 155.416 156.771 155.416C156.035 155.416 155.379 155.6 154.803 155.968C154.243 156.336 153.795 156.84 153.459 157.48C153.139 158.12 152.979 158.848 152.979 159.664C152.979 160.496 153.139 161.24 153.459 161.896C153.795 162.536 154.243 163.04 154.803 163.408C155.379 163.776 156.035 163.96 156.771 163.96ZM166.51 166V148.24H168.982V166H166.51ZM177.099 166.24C176.059 166.24 175.107 165.952 174.243 165.376C173.395 164.8 172.715 164.016 172.203 163.024C171.691 162.032 171.435 160.912 171.435 159.664C171.435 158.4 171.691 157.28 172.203 156.304C172.731 155.312 173.435 154.536 174.315 153.976C175.211 153.416 176.211 153.136 177.315 153.136C177.971 153.136 178.571 153.232 179.115 153.424C179.659 153.616 180.131 153.888 180.531 154.24C180.947 154.576 181.283 154.968 181.539 155.416C181.811 155.864 181.979 156.344 182.043 156.856L181.491 156.664V153.4H183.987V166H181.491V163L182.067 162.832C181.971 163.264 181.771 163.688 181.467 164.104C181.179 164.504 180.803 164.864 180.339 165.184C179.891 165.504 179.387 165.76 178.827 165.952C178.283 166.144 177.707 166.24 177.099 166.24ZM177.747 163.96C178.499 163.96 179.163 163.776 179.739 163.408C180.315 163.04 180.763 162.536 181.083 161.896C181.419 161.24 181.587 160.496 181.587 159.664C181.587 158.848 181.419 158.12 181.083 157.48C180.763 156.84 180.315 156.336 179.739 155.968C179.163 155.6 178.499 155.416 177.747 155.416C177.011 155.416 176.355 155.6 175.779 155.968C175.219 156.336 174.771 156.84 174.435 157.48C174.115 158.12 173.955 158.848 173.955 159.664C173.955 160.496 174.115 161.24 174.435 161.896C174.771 162.536 175.219 163.04 175.779 163.408C176.355 163.776 177.011 163.96 177.747 163.96ZM187.439 166V153.4H189.911V155.992L189.479 156.28C189.639 155.72 189.951 155.208 190.415 154.744C190.879 154.264 191.431 153.88 192.071 153.592C192.711 153.288 193.367 153.136 194.039 153.136C194.999 153.136 195.799 153.328 196.439 153.712C197.079 154.08 197.559 154.648 197.879 155.416C198.199 156.184 198.359 157.152 198.359 158.32V166H195.887V158.488C195.887 157.768 195.791 157.176 195.599 156.712C195.407 156.232 195.111 155.888 194.711 155.68C194.311 155.456 193.815 155.36 193.223 155.392C192.743 155.392 192.303 155.472 191.903 155.632C191.503 155.776 191.151 155.984 190.847 156.256C190.559 156.528 190.327 156.848 190.151 157.216C189.991 157.568 189.911 157.952 189.911 158.368V166H188.687C188.479 166 188.271 166 188.063 166C187.855 166 187.647 166 187.439 166ZM206.968 166.24C205.816 166.24 204.784 165.96 203.872 165.4C202.976 164.824 202.264 164.048 201.736 163.072C201.208 162.08 200.944 160.952 200.944 159.688C200.944 158.424 201.2 157.304 201.712 156.328C202.24 155.336 202.952 154.56 203.848 154C204.744 153.424 205.76 153.136 206.896 153.136C207.52 153.136 208.12 153.24 208.696 153.448C209.288 153.64 209.816 153.912 210.28 154.264C210.744 154.6 211.104 154.976 211.36 155.392C211.632 155.792 211.768 156.2 211.768 156.616L211.048 156.664V148.24H213.52V166H211.048V163H211.528C211.528 163.384 211.4 163.768 211.144 164.152C210.888 164.52 210.544 164.864 210.112 165.184C209.696 165.504 209.208 165.76 208.648 165.952C208.104 166.144 207.544 166.24 206.968 166.24ZM207.304 164.104C208.056 164.104 208.72 163.912 209.296 163.528C209.872 163.144 210.32 162.624 210.64 161.968C210.976 161.296 211.144 160.536 211.144 159.688C211.144 158.84 210.976 158.088 210.64 157.432C210.32 156.76 209.872 156.232 209.296 155.848C208.72 155.464 208.056 155.272 207.304 155.272C206.552 155.272 205.888 155.464 205.312 155.848C204.736 156.232 204.28 156.76 203.944 157.432C203.624 158.088 203.464 158.84 203.464 159.688C203.464 160.536 203.624 161.296 203.944 161.968C204.28 162.624 204.736 163.144 205.312 163.528C205.888 163.912 206.552 164.104 207.304 164.104Z" fill="#D5D5D6"/>
</svg>
